<svg width="299" height="449" viewBox="0 0 299 449" fill="none" xmlns="http://www.w3.org/2000/svg">
<g clip-path="url(#clip0_5_4)">
<rect width="295.8" height="445.8" transform="matrix(-1 0 0 1 297.4 1.59998)" fill="url(#paint0_radial_5_4)"/>
<g filter="url(#filter0_d_5_4)">
<path d="M160.752 42.4342L160.757 42.4371L167.502 46.1841L167.507 46.1871L172.752 49.1841L172.756 49.1863L179.004 52.6853L179.006 52.6863L190.504 59.1853L190.507 59.1871L195.002 61.6841L195.007 61.6871L202.002 65.6842L202.007 65.6871L208.755 69.4361L208.757 69.4371L219.002 75.1841L219.005 75.1861L224.252 78.1842L224.257 78.1871L228.752 80.6841L228.757 80.6871L235.752 84.6842L235.757 84.6871L242.494 88.4299L245.185 90.1424L245.265 90.2217L245.5 93.5208L246 135.004L246 135.006L246.25 167.004L246.25 167.007L246.5 185.75V185.753V201.49L244.233 203.077L238.504 206.315L238.504 206.315L238.493 206.321L232.245 210.07L232.243 210.071L219.996 217.319L219.995 217.32L207.246 224.819L207.243 224.821L203.499 227.067L203.493 227.071L198.749 229.817L198.745 229.82L190.746 234.57L190.745 234.57L174.246 244.32L174.243 244.321L169.246 247.319L169.243 247.321L152.246 257.319L152.243 257.321L151.145 257.98L149.664 257.768L143.996 254.565L143.994 254.564L137.746 251.065L137.744 251.064L131.996 247.815L131.994 247.814L125.746 244.315L125.744 244.314L114.246 237.815L114.244 237.814L101.748 230.816L101.744 230.814L96.4981 227.816L96.4928 227.813L89.746 224.065L89.7428 224.063L83.996 220.815L83.9943 220.814L77.746 217.315L77.7443 217.314L71.996 214.065L71.9943 214.064L65.7481 210.566L65.7443 210.564L60.4981 207.566L60.496 207.565L54.7572 204.321L54.746 204.315L53.6321 203.646L53.4987 203.379L52.75 133.995L52.75 133.994L52.5 114.5V114.497V92.0402L57.4981 89.1841L57.4981 89.1842L57.5072 89.1787L63.7529 85.4314L63.7572 85.4287L71.0029 81.1814L71.0029 81.1814L71.0095 81.1774L78.0039 76.9308L83.2481 73.9341L83.2481 73.9342L83.2572 73.9287L87.0044 71.6805L87.0072 71.6787L98.0019 65.1819L98.0044 65.1805L104.002 61.6819L104.005 61.6801L110.755 57.6802L110.757 57.6787L114.504 55.4305L114.507 55.4287L120.004 52.1805L120.009 52.1774L127.005 47.9303L133.5 44.1831L133.505 44.1801L147.005 36.1801L147.028 36.1663L147.05 36.15L147.871 35.5341L148.825 35.725L155.502 39.4341L155.507 39.4371L160.752 42.4342Z" fill="#3A372C" stroke="black"/>
<path d="M156.752 97.1841L156.756 97.1866L167.504 103.185L167.506 103.187L173.252 106.434L173.254 106.435L180.252 110.434L180.256 110.436L186.504 113.935L186.506 113.936L192.252 117.184L192.254 117.185L195.62 119.109L196.001 119.87L196.497 173.468L190.496 177.069L190.493 177.071L177.746 184.569L177.745 184.57L169.745 189.32L169.745 189.32L156.245 197.32L156.243 197.321L150.205 200.944L149.212 200.546L142.742 197.063L137.498 194.066L137.494 194.064L131.248 190.566L131.244 190.564L125.998 187.566L125.994 187.564L119.746 184.065L119.744 184.064L113.996 180.815L113.994 180.814L107.751 177.317L107.744 177.314L103.15 174.654L102.749 173.65L102.5 156.497L102.5 156.493L102.251 120.887L102.862 119.869L106.248 117.934L106.248 117.934L106.257 117.929L112.503 114.181L112.507 114.179L119.753 109.931L119.753 109.931L119.757 109.929L123.504 107.681L123.507 107.679L133.254 101.931L133.254 101.931L133.257 101.929L137.002 99.6819L137.007 99.6787L143.002 96.1819L148.768 92.8182L151.514 94.191L156.752 97.1841Z" stroke="black"/>
<mask id="path-6-inside-1_5_4" fill="white">
<path d="M147.75 35L149 35.25L155.75 39L161 42L167.75 45.75L173 48.75L179.25 52.25L190.75 58.75L195.25 61.25L202.25 65.25L209 69L219.25 74.75L224.5 77.75L229 80.25L236 84.25L242.75 88L245.5 89.75L245.75 90L246 93.5L246.5 135L246.75 167L247 185.75V201.75L244.5 203.5L238.75 206.75L232.5 210.5L220.25 217.75L207.5 225.25L203.75 227.5L199 230.25L191 235L174.5 244.75L169.5 247.75L152.5 257.75L151.25 258.5L149.5 258.25L143.75 255L137.5 251.5L131.75 248.25L125.5 244.75L114 238.25L101.5 231.25L96.25 228.25L89.5 224.5L83.75 221.25L77.5 217.75L71.75 214.5L65.5 211L60.25 208L54.5 204.75L53.25 204L53 203.5L52.25 134L52 114.5V91.75L57.25 88.75L63.5 85L70.75 80.75L77.75 76.5L83 73.5L86.75 71.25L97.75 64.75L103.75 61.25L110.5 57.25L114.25 55L119.75 51.75L126.75 47.5L133.25 43.75L146.75 35.75L147.75 35ZM147.75 43L142.25 46.25L133.75 51.25L128.75 54.25L122.25 58L119 60L113.5 63.25L106 67.75L103.75 69.25L104.25 70.5L105 72.25L103.75 72.75L99.5 75.25L95.75 77.5L89.25 81.25L80.5 86.5L74.5 90L68.25 93.75L64 96.25L62 97.5L62.25 124.25L62.5 147.75H59.75L59.5 148L59.75 183.75L60 199.75L62.25 201.25L65.25 203L68.25 204.5L73.5 207.5L77.75 210L86.5 214.75L96.75 220.5L102 223.5L104.75 225L105.75 224.75L106.75 223L108 223.25L110.75 225L113.5 226.5L120.75 230.5L126.5 233.75L132.75 237.25L138.5 240.5L145.25 244.25L150 247L151.5 246.75L155 244.75L158.75 242.5L166 238.25L169.75 236L176.5 232L183.75 227.75L190 224L194 222L195.5 224.25L197.5 223.25L198.75 222.5L209.75 216L215.75 212.5L221.25 209.25L229.75 204.25L236 200.5L239.5 198.5L240 198V164L239.75 150.5L239.5 146L236.5 145.75V132.75L236.25 110.75L236 95.75L232.75 93.75L226.75 90.5L215.25 84L196.5 73.5L192.5 71.25L192.75 70L193.75 68.75L193.5 68L188.75 65.5L186.25 64L183.5 62.5L176.25 58.5L171 55.5L164.25 51.75L158.25 48.25L151.5 44.5L149 43H147.75Z"/>
</mask>
<path d="M147.75 35L149 35.25L155.75 39L161 42L167.75 45.75L173 48.75L179.25 52.25L190.75 58.75L195.25 61.25L202.25 65.25L209 69L219.25 74.75L224.5 77.75L229 80.25L236 84.25L242.75 88L245.5 89.75L245.75 90L246 93.5L246.5 135L246.75 167L247 185.75V201.75L244.5 203.5L238.75 206.75L232.5 210.5L220.25 217.75L207.5 225.25L203.75 227.5L199 230.25L191 235L174.5 244.75L169.5 247.75L152.5 257.75L151.25 258.5L149.5 258.25L143.75 255L137.5 251.5L131.75 248.25L125.5 244.75L114 238.25L101.5 231.25L96.25 228.25L89.5 224.5L83.75 221.25L77.5 217.75L71.75 214.5L65.5 211L60.25 208L54.5 204.75L53.25 204L53 203.5L52.25 134L52 114.5V91.75L57.25 88.75L63.5 85L70.75 80.75L77.75 76.5L83 73.5L86.75 71.25L97.75 64.75L103.75 61.25L110.5 57.25L114.25 55L119.75 51.75L126.75 47.5L133.25 43.75L146.75 35.75L147.75 35ZM147.75 43L142.25 46.25L133.75 51.25L128.75 54.25L122.25 58L119 60L113.5 63.25L106 67.75L103.75 69.25L104.25 70.5L105 72.25L103.75 72.75L99.5 75.25L95.75 77.5L89.25 81.25L80.5 86.5L74.5 90L68.25 93.75L64 96.25L62 97.5L62.25 124.25L62.5 147.75H59.75L59.5 148L59.75 183.75L60 199.75L62.25 201.25L65.25 203L68.25 204.5L73.5 207.5L77.75 210L86.5 214.75L96.75 220.5L102 223.5L104.75 225L105.75 224.75L106.75 223L108 223.25L110.75 225L113.5 226.5L120.75 230.5L126.5 233.75L132.75 237.25L138.5 240.5L145.25 244.25L150 247L151.5 246.75L155 244.75L158.75 242.5L166 238.25L169.75 236L176.5 232L183.75 227.75L190 224L194 222L195.5 224.25L197.5 223.25L198.75 222.5L209.75 216L215.75 212.5L221.25 209.25L229.75 204.25L236 200.5L239.5 198.5L240 198V164L239.75 150.5L239.5 146L236.5 145.75V132.75L236.25 110.75L236 95.75L232.75 93.75L226.75 90.5L215.25 84L196.5 73.5L192.5 71.25L192.75 70L193.75 68.75L193.5 68L188.75 65.5L186.25 64L183.5 62.5L176.25 58.5L171 55.5L164.25 51.75L158.25 48.25L151.5 44.5L149 43H147.75Z" fill="#727502" stroke="black" stroke-width="2" mask="url(#path-6-inside-1_5_4)"/>
<mask id="path-7-inside-2_5_4" fill="white">
<path d="M147.75 35L149 35.25L155.75 39L161 42L167.75 45.75L173 48.75L179.25 52.25L190.75 58.75L195.25 61.25L202.25 65.25L209 69L219.25 74.75L224.5 77.75L229 80.25L236 84.25L242.75 88L245.5 89.75L245.75 90L246 93.5L246.5 135L246.75 167L247 185.75V201.75L244.5 203.5L238.75 206.75L232.5 210.5L220.25 217.75L207.5 225.25L203.75 227.5L199 230.25L191 235L174.5 244.75L169.5 247.75L152.5 257.75L151.25 258.5L149.5 258.25L143.75 255L137.5 251.5L131.75 248.25L125.5 244.75L114 238.25L101.5 231.25L96.25 228.25L89.5 224.5L83.75 221.25L77.5 217.75L71.75 214.5L65.5 211L60.25 208L54.5 204.75L53.25 204L53 203.5L52.25 134L52 114.5V91.75L57.25 88.75L63.5 85L70.75 80.75L77.75 76.5L83 73.5L86.75 71.25L97.75 64.75L103.75 61.25L110.5 57.25L114.25 55L119.75 51.75L126.75 47.5L133.25 43.75L146.75 35.75L147.75 35ZM148 41.25L142.5 44.5L138.75 46.75L133.25 50L124.75 55L119.75 58L114.25 61.25L109.25 64.25L105.25 66.5L103.75 67.5L102.5 67.75L101.75 65.5L100.5 65.75L94.75 69L91.5 71L88 73L81.25 77L70.25 83.5L58.75 90.25L54.25 92.75L54 93V101.75L54.5 146.5L54.75 147.75L57.75 148L58 168.5L58.25 198L58.5 200.5L59.5 201.5L66.75 205.5L72.5 208.75L78.75 212.25L84.5 215.5L91.5 219.5L96 222L102.25 225.5L104.25 226.5L103.75 227.75L103.25 228.5V229.75L108.75 233L115 236.5L127.25 243.5L133 246.75L138 249.5L143.25 252.5L149 255.75L150 256.25L151.75 256L157.5 252.5L164.25 248.5L171.5 244.25L175.25 242L180.75 238.75L185 236.25L197.5 228.75L197.75 227.75L196.75 225.75L199 224.25L201.5 222.75L207.5 219.25L215 214.75L221 211.25L229.75 206L235.25 202.75L241.25 199.25L241.75 198.75L242 197.25L241.75 172.5L241.25 148.75L241 146L244.25 145.75V132.25L244 93.75V91.25L241.75 89.75L235.75 86.5L230.25 83.25L221.5 78.5L212.75 73.5L207 70.25L200.25 66.5L196.5 64.25L195.5 64.5L194.75 66.5L193.25 66.25L190.25 64.5L186.75 62.5L177 57L168.75 52.5L166.25 51L163.5 49.5L152.25 43.25L148.75 41.25H148Z"/>
</mask>
<path d="M147.75 35L149 35.25L155.75 39L161 42L167.75 45.75L173 48.75L179.25 52.25L190.75 58.75L195.25 61.25L202.25 65.25L209 69L219.25 74.75L224.5 77.75L229 80.25L236 84.25L242.75 88L245.5 89.75L245.75 90L246 93.5L246.5 135L246.75 167L247 185.75V201.75L244.5 203.5L238.75 206.75L232.5 210.5L220.25 217.75L207.5 225.25L203.75 227.5L199 230.25L191 235L174.5 244.75L169.5 247.75L152.5 257.75L151.25 258.5L149.5 258.25L143.75 255L137.5 251.5L131.75 248.25L125.5 244.75L114 238.25L101.5 231.25L96.25 228.25L89.5 224.5L83.75 221.25L77.5 217.75L71.75 214.5L65.5 211L60.25 208L54.5 204.75L53.25 204L53 203.5L52.25 134L52 114.5V91.75L57.25 88.75L63.5 85L70.75 80.75L77.75 76.5L83 73.5L86.75 71.25L97.75 64.75L103.75 61.25L110.5 57.25L114.25 55L119.75 51.75L126.75 47.5L133.25 43.75L146.75 35.75L147.75 35ZM148 41.25L142.5 44.5L138.75 46.75L133.25 50L124.75 55L119.75 58L114.25 61.25L109.25 64.25L105.25 66.5L103.75 67.5L102.5 67.75L101.75 65.5L100.5 65.75L94.75 69L91.5 71L88 73L81.25 77L70.25 83.5L58.75 90.25L54.25 92.75L54 93V101.75L54.5 146.5L54.75 147.75L57.75 148L58 168.5L58.25 198L58.5 200.5L59.5 201.5L66.75 205.5L72.5 208.75L78.75 212.25L84.5 215.5L91.5 219.5L96 222L102.25 225.5L104.25 226.5L103.75 227.75L103.25 228.5V229.75L108.75 233L115 236.5L127.25 243.5L133 246.75L138 249.5L143.25 252.5L149 255.75L150 256.25L151.75 256L157.5 252.5L164.25 248.5L171.5 244.25L175.25 242L180.75 238.75L185 236.25L197.5 228.75L197.75 227.75L196.75 225.75L199 224.25L201.5 222.75L207.5 219.25L215 214.75L221 211.25L229.75 206L235.25 202.75L241.25 199.25L241.75 198.75L242 197.25L241.75 172.5L241.25 148.75L241 146L244.25 145.75V132.25L244 93.75V91.25L241.75 89.75L235.75 86.5L230.25 83.25L221.5 78.5L212.75 73.5L207 70.25L200.25 66.5L196.5 64.25L195.5 64.5L194.75 66.5L193.25 66.25L190.25 64.5L186.75 62.5L177 57L168.75 52.5L166.25 51L163.5 49.5L152.25 43.25L148.75 41.25H148Z" fill="#070602" stroke="black" stroke-width="2" mask="url(#path-7-inside-2_5_4)"/>
<g filter="url(#filter1_dddddd_5_4)">
<path d="M186.25 81.25L187.75 81.75L194.5 85.5L200.5 89L207.75 93L213.5 96.25L224 102.25L224.5 102.75L224.75 113.5L225 153.75L225.5 189L224.25 190.25L218.75 193.5L214.5 196L209.5 199L196 207L189 211.25L187.75 211.75L186 209L184 205.75L184.5 204.75L189 202.25L202.75 194L210 189.75L216 186.25L217.25 185.5H217.75L217.5 178.75L217 131.5V107L215.75 106.5L203.25 99.5L198 96.5L187.25 90.5L183.25 88.25L183 87L185 83.5L186.25 81.25Z" fill="#727502"/>
<path d="M216.257 186.679L217.388 186H217.75H218.269L218.25 185.481L218 178.738L217.5 131.5V131.497V107V106.661L217.186 106.536L215.966 106.048L203.498 99.0659L203.494 99.0637L198.248 96.0659L198.248 96.0659L198.244 96.0634L187.495 90.0642L187.494 90.0634L183.695 87.9268L183.527 87.0855L185.434 83.7481L185.434 83.7481L185.437 83.7428L186.486 81.8556L187.548 82.2096L194.253 85.9345L200.248 89.4319L200.248 89.432L200.258 89.4378L207.504 93.4353L207.508 93.4378L213.252 96.6841L213.254 96.6853L223.694 102.651L224.005 102.962L224.25 113.508L224.25 113.512L224.5 153.753L224.5 153.757L224.997 188.796L223.941 189.852L218.496 193.069L218.496 193.07L214.246 195.569L214.243 195.571L209.245 198.57L209.243 198.571L195.745 206.57L195.741 206.573L188.776 210.801L187.949 211.132L186.426 208.738L186.422 208.732L184.572 205.725L184.878 205.112L189.243 202.687L189.25 202.683L189.257 202.679L203.003 194.431L203.007 194.429L210.252 190.182L210.253 190.181L216.252 186.682L216.257 186.679Z" stroke="black"/>
</g>
<g filter="url(#filter2_dddddd_5_4)">
<path d="M111 82L111.75 82.25L114.25 87L114.75 87.75V88.75L111.25 90.75L107.5 93L90.5 103L81.75 108.25L81.5 108.5L81.75 129L82 162.5L82.25 186.25V187L83.75 187.5L89.5 190.75L94 193.25L99.75 196.5L106.5 200.25L112.5 203.75L115.75 205.5L116 205.75V207L114.5 209.5L112.75 212.5L111.25 212L105 208.5L99.75 205.5L93.5 202L88.25 199L81.5 195.25L75.75 192L74.75 191L74.5 187.5L74 150.75L73.75 104.25L76 102.75L80.25 100.25L84 98L91.25 93.75L102.5 87L109.25 83L111 82Z" fill="#727502"/>
<path d="M113.808 87.2329L113.82 87.2558L113.834 87.2773L114.25 87.9014V88.4598L111.002 90.3159L111.002 90.3158L110.993 90.3213L107.246 92.569L107.243 92.5713L90.2465 102.569L90.2465 102.569L90.2428 102.571L81.4928 107.821L81.44 107.853L81.3964 107.896L81.1464 108.146L80.9975 108.295L81 108.506L81.25 129.004L81.25 129.006L81.5 162.504L81.5 162.505L81.75 186.25V186.253V187V187.36L82.0919 187.474L83.5461 187.959L89.254 191.185L89.2572 191.187L93.754 193.685L93.7572 193.687L99.504 196.935L99.5072 196.937L106.248 200.682L106.257 200.687L112.248 204.182L112.255 204.186L112.263 204.19L115.448 205.905L115.5 205.957V206.862L114.071 209.243L114.068 209.248L112.523 211.897L111.453 211.541L105.248 208.066L105.244 208.064L99.9981 205.066L99.9943 205.064L93.7481 201.566L93.7443 201.564L88.4981 198.566L88.4928 198.563L81.746 194.815L81.7428 194.813L76.0554 191.598L75.2354 190.778L74.9998 187.479L74.5 150.747L74.5 150.743L74.2514 104.517L76.2656 103.174L80.5035 100.681L80.5035 100.681L80.5072 100.679L84.2529 98.4313L84.2572 98.4287L91.5029 94.1813L91.5029 94.1814L91.5072 94.1787L102.755 87.4301L102.757 87.4287L109.502 83.4322L111.054 82.545L111.401 82.6608L113.808 87.2329Z" stroke="black"/>
</g>
<g filter="url(#filter3_dddddd_5_4)">
<path d="M148.5 88.25L150 88.75L155.5 91.75L160.25 94.5L166 97.75L172.25 101.25L179.5 105.25L185.5 108.75L191.75 112.25L197 115.25L199.5 116.75L200 118.5L200.25 146.25L200.75 167.75V175.5L199 176.75L197.75 177L197.5 176L198.5 175L199 174V171L198.75 168.5L198.5 161.25L198.25 140.5V118.5L194.5 116.75L188 113.25L182.75 110.25L176.5 106.75L170.75 103.5L164 99.75L158 96.25L153.75 94L150 91.75L149.25 91.25L148 91.5L144.5 93.75L139.5 96.75L135.25 99.25L131.5 101.5L120.5 108L116.75 110.25L109.5 114.5L103.5 118L101.25 119.25L101 120L101.25 127.75L101.5 175.75L103.75 176.5L109 179.5L113.5 182L125.75 189L131.75 192.25L137 195.25L144.25 199.25L148.25 201.5L150.25 202.75L152.5 202L155.5 200.25H156V199.75L161 197.25L162.25 197L163 197.25L162.5 198L162 197.75L161.75 198.75L159 200.5L155.25 202.75L152 204.75L150.75 205.25H149.25L143.25 201.75L139.5 199.75L128 193.25L125 191.5L122.25 190L115.5 186.25L109 182.5L103.5 179.5L101 178L99 176.75L98.25 134V118.25L100.5 116.75L107 113L110.25 111L144.25 91L148.5 88.25Z" fill="#717402"/>
<path d="M161.164 197.727L161.508 197.658L161.313 198.435L158.737 200.075L154.993 202.321L154.988 202.324L151.775 204.302L150.654 204.75H149.385L143.502 201.318L143.494 201.313L143.485 201.309L139.741 199.312L128.252 192.818L128.246 192.815L125.252 191.068L125.246 191.064L125.239 191.061L122.493 189.563L122.489 189.561L115.75 185.817L115.743 185.813L109.25 182.067L109.25 182.067L109.239 182.061L103.748 179.066L101.265 177.576L101.257 177.571L99.4952 176.47L98.75 134V133.996V118.518L100.764 117.175L107.25 113.433L107.256 113.43L107.262 113.426L110.508 111.428L144.504 91.431L144.513 91.4256L144.522 91.4198L148.57 88.8003L149.8 89.2103L155.255 92.1859L159.999 94.9327L160.004 94.9353L165.754 98.1853L165.756 98.1863L172.006 101.686L172.008 101.688L179.253 105.685L185.248 109.182L185.248 109.182L185.256 109.186L191.502 112.684L191.506 112.686L196.743 115.679L196.752 115.684L199.073 117.077L199.501 118.572L199.75 146.255L199.75 146.262L200.25 167.756V175.243L198.797 176.281L198.119 176.416L198.054 176.153L198.854 175.354L198.911 175.296L198.947 175.224L199.447 174.224L199.5 174.118V174V171V170.975L199.498 170.95L199.249 168.466L199 161.238L198.75 140.5V140.497V118.5V118.182L198.461 118.047L194.724 116.303L188.243 112.813L182.998 109.816L182.994 109.814L176.746 106.315L176.744 106.314L170.996 103.065L170.993 103.063L164.252 99.3181L164.243 99.3129L158.252 95.8181L158.243 95.8129L158.234 95.8081L153.996 93.5644L150.267 91.3274L149.527 90.834L149.355 90.7191L149.152 90.7597L147.902 91.0097L147.809 91.0283L147.73 91.0794L144.236 93.3252L139.246 96.319L139.243 96.3213L134.996 98.819L134.993 98.8213L131.246 101.07L131.243 101.071L120.246 107.57L120.243 107.571L116.497 109.819L116.493 109.821L109.248 114.068L109.247 114.069L103.253 117.565L101.007 118.813L100.837 118.907L100.776 119.092L100.526 119.842L100.497 119.927L100.5 120.016L100.75 127.759L101 175.753L101.002 176.111L101.342 176.224L103.545 176.959L108.752 179.934L108.757 179.937L113.252 182.434L113.257 182.437L125.502 189.434L125.502 189.434L125.512 189.44L131.507 192.687L136.752 195.684L136.752 195.684L136.758 195.688L144.005 199.686L144.008 199.688L147.995 201.93L149.985 203.174L150.185 203.299L150.408 203.224L152.658 202.474L152.707 202.458L152.752 202.432L155.635 200.75H156H156.5V200.25V200.059L161.164 197.727Z" stroke="black"/>
</g>
</g>
<g style="mix-blend-mode:overlay">
<path d="M272.14 396.449C272.402 396.603 272.474 396.704 272.494 396.737C272.474 396.771 272.402 396.872 272.14 397.026C271.793 397.231 271.244 397.45 270.477 397.675C268.951 398.123 266.676 398.561 263.716 398.981C257.803 399.819 249.234 400.576 238.629 401.213C217.425 402.485 188.123 403.272 155.753 403.272C123.383 403.272 94.0819 402.485 72.8772 401.213C62.2729 400.576 53.7035 399.819 47.7905 398.981C44.8306 398.561 42.5558 398.123 41.0292 397.675C40.2621 397.45 39.7132 397.231 39.3661 397.026C39.1046 396.872 39.0323 396.771 39.0129 396.737C39.0323 396.704 39.1046 396.603 39.3661 396.449C39.7132 396.244 40.2621 396.024 41.0292 395.799C42.5558 395.352 44.8306 394.914 47.7905 394.494C53.7035 393.655 62.2729 392.898 72.8772 392.262C94.0819 390.99 123.383 390.203 155.753 390.203C188.123 390.203 217.425 390.99 238.629 392.262C249.234 392.898 257.803 393.655 263.716 394.494C266.676 394.914 268.951 395.352 270.477 395.799C271.244 396.024 271.793 396.244 272.14 396.449Z" fill="url(#paint1_radial_5_4)"/>
<path d="M272.14 396.449C272.402 396.603 272.474 396.704 272.494 396.737C272.474 396.771 272.402 396.872 272.14 397.026C271.793 397.231 271.244 397.45 270.477 397.675C268.951 398.123 266.676 398.561 263.716 398.981C257.803 399.819 249.234 400.576 238.629 401.213C217.425 402.485 188.123 403.272 155.753 403.272C123.383 403.272 94.0819 402.485 72.8772 401.213C62.2729 400.576 53.7035 399.819 47.7905 398.981C44.8306 398.561 42.5558 398.123 41.0292 397.675C40.2621 397.45 39.7132 397.231 39.3661 397.026C39.1046 396.872 39.0323 396.771 39.0129 396.737C39.0323 396.704 39.1046 396.603 39.3661 396.449C39.7132 396.244 40.2621 396.024 41.0292 395.799C42.5558 395.352 44.8306 394.914 47.7905 394.494C53.7035 393.655 62.2729 392.898 72.8772 392.262C94.0819 390.99 123.383 390.203 155.753 390.203C188.123 390.203 217.425 390.99 238.629 392.262C249.234 392.898 257.803 393.655 263.716 394.494C266.676 394.914 268.951 395.352 270.477 395.799C271.244 396.024 271.793 396.244 272.14 396.449Z" stroke="#FFF70C"/>
</g>
<g style="mix-blend-mode:hard-light" filter="url(#filter4_f_5_4)">
<ellipse cx="144.81" cy="400.646" rx="118.81" ry="1.56329" fill="url(#paint2_radial_5_4)"/>
<path d="M32.2165 400.646C33.1606 400.609 34.2073 400.572 35.3522 400.537C41.3599 400.35 50.056 400.182 60.8053 400.04C82.3028 399.757 112.003 399.582 144.81 399.582C177.617 399.582 207.317 399.757 228.815 400.04C239.564 400.182 248.26 400.35 254.268 400.537C255.413 400.572 256.46 400.609 257.404 400.646C256.46 400.682 255.413 400.719 254.268 400.754C248.26 400.941 239.564 401.11 228.815 401.251C207.317 401.534 177.617 401.709 144.81 401.709C112.003 401.709 82.3028 401.534 60.8053 401.251C50.056 401.11 41.3599 400.941 35.3522 400.754C34.2073 400.719 33.1606 400.682 32.2165 400.646Z" stroke="#FFF70C"/>
</g>
<path d="M39.2878 377.978L57.2657 360H250.332L268.31 377.978" stroke="#FFF70C" stroke-width="0.5" stroke-linecap="round"/>
<mask id="path-18-outside-3_5_4" maskUnits="userSpaceOnUse" x="117" y="370" width="74" height="12" fill="black">
<rect fill="white" x="117" y="370" width="74" height="12"/>
<path d="M119.28 378.92H123.48V380H118.08V376.232L119.472 375.428H122.28V372.68H119.28V373.76H118.08V372.404L119.472 371.6H122.088L123.48 372.404V375.704L122.088 376.508H119.28V378.92ZM134.564 380V371.6H138.752L140.144 372.404V375.968L138.752 376.772H135.764V380H134.564ZM135.764 372.68V375.692H138.944V372.68H135.764ZM151.268 379.256L149.876 380.06H146.36L144.968 379.256V372.344L146.36 371.54H149.876L151.268 372.344V379.256ZM146.168 372.62V378.98H150.068V372.62H146.168ZM156.333 380V371.6H157.533V380H156.333ZM163.8 373.652V380H162.6V371.6H163.692L168.036 377.948H168.06V371.6H169.26V380H168.168L163.824 373.652H163.8ZM177.196 372.68V380H175.996V372.68H173.608V371.6H179.584V372.68H177.196ZM183.924 375.56V372.344L185.316 371.54H188.112L189.504 372.344V373.58H188.304V372.62H185.124V375.164H188.112L189.504 375.968V379.256L188.112 380.06H185.196L183.804 379.256V378.02H185.004V378.98H188.304V376.364H185.316L183.924 375.56Z"/>
</mask>
<path d="M119.28 378.92H123.48V380H118.08V376.232L119.472 375.428H122.28V372.68H119.28V373.76H118.08V372.404L119.472 371.6H122.088L123.48 372.404V375.704L122.088 376.508H119.28V378.92ZM134.564 380V371.6H138.752L140.144 372.404V375.968L138.752 376.772H135.764V380H134.564ZM135.764 372.68V375.692H138.944V372.68H135.764ZM151.268 379.256L149.876 380.06H146.36L144.968 379.256V372.344L146.36 371.54H149.876L151.268 372.344V379.256ZM146.168 372.62V378.98H150.068V372.62H146.168ZM156.333 380V371.6H157.533V380H156.333ZM163.8 373.652V380H162.6V371.6H163.692L168.036 377.948H168.06V371.6H169.26V380H168.168L163.824 373.652H163.8ZM177.196 372.68V380H175.996V372.68H173.608V371.6H179.584V372.68H177.196ZM183.924 375.56V372.344L185.316 371.54H188.112L189.504 372.344V373.58H188.304V372.62H185.124V375.164H188.112L189.504 375.968V379.256L188.112 380.06H185.196L183.804 379.256V378.02H185.004V378.98H188.304V376.364H185.316L183.924 375.56Z" fill="#FBED50"/>
<path d="M119.28 378.92H118.28V379.92H119.28V378.92ZM123.48 378.92H124.48V377.92H123.48V378.92ZM123.48 380V381H124.48V380H123.48ZM118.08 380H117.08V381H118.08V380ZM118.08 376.232L117.58 375.366L117.08 375.655V376.232H118.08ZM119.472 375.428V374.428H119.204L118.972 374.562L119.472 375.428ZM122.28 375.428V376.428H123.28V375.428H122.28ZM122.28 372.68H123.28V371.68H122.28V372.68ZM119.28 372.68V371.68H118.28V372.68H119.28ZM119.28 373.76V374.76H120.28V373.76H119.28ZM118.08 373.76H117.08V374.76H118.08V373.76ZM118.08 372.404L117.58 371.538L117.08 371.827V372.404H118.08ZM119.472 371.6V370.6H119.204L118.972 370.734L119.472 371.6ZM122.088 371.6L122.588 370.734L122.356 370.6H122.088V371.6ZM123.48 372.404H124.48V371.827L123.98 371.538L123.48 372.404ZM123.48 375.704L123.98 376.57L124.48 376.281V375.704H123.48ZM122.088 376.508V377.508H122.356L122.588 377.374L122.088 376.508ZM119.28 376.508V375.508H118.28V376.508H119.28ZM119.28 379.92H123.48V377.92H119.28V379.92ZM122.48 378.92V380H124.48V378.92H122.48ZM123.48 379H118.08V381H123.48V379ZM119.08 380V376.232H117.08V380H119.08ZM118.58 377.098L119.972 376.294L118.972 374.562L117.58 375.366L118.58 377.098ZM119.472 376.428H122.28V374.428H119.472V376.428ZM123.28 375.428V372.68H121.28V375.428H123.28ZM122.28 371.68H119.28V373.68H122.28V371.68ZM118.28 372.68V373.76H120.28V372.68H118.28ZM119.28 372.76H118.08V374.76H119.28V372.76ZM119.08 373.76V372.404H117.08V373.76H119.08ZM118.58 373.27L119.972 372.466L118.972 370.734L117.58 371.538L118.58 373.27ZM119.472 372.6H122.088V370.6H119.472V372.6ZM121.588 372.466L122.98 373.27L123.98 371.538L122.588 370.734L121.588 372.466ZM122.48 372.404V375.704H124.48V372.404H122.48ZM122.98 374.838L121.588 375.642L122.588 377.374L123.98 376.57L122.98 374.838ZM122.088 375.508H119.28V377.508H122.088V375.508ZM118.28 376.508V378.92H120.28V376.508H118.28ZM134.564 380H133.564V381H134.564V380ZM134.564 371.6V370.6H133.564V371.6H134.564ZM138.752 371.6L139.252 370.734L139.02 370.6H138.752V371.6ZM140.144 372.404H141.144V371.827L140.644 371.538L140.144 372.404ZM140.144 375.968L140.644 376.834L141.144 376.545V375.968H140.144ZM138.752 376.772V377.772H139.02L139.252 377.638L138.752 376.772ZM135.764 376.772V375.772H134.764V376.772H135.764ZM135.764 380V381H136.764V380H135.764ZM135.764 372.68V371.68H134.764V372.68H135.764ZM135.764 375.692H134.764V376.692H135.764V375.692ZM138.944 375.692V376.692H139.944V375.692H138.944ZM138.944 372.68H139.944V371.68H138.944V372.68ZM135.564 380V371.6H133.564V380H135.564ZM134.564 372.6H138.752V370.6H134.564V372.6ZM138.252 372.466L139.644 373.27L140.644 371.538L139.252 370.734L138.252 372.466ZM139.144 372.404V375.968H141.144V372.404H139.144ZM139.644 375.102L138.252 375.906L139.252 377.638L140.644 376.834L139.644 375.102ZM138.752 375.772H135.764V377.772H138.752V375.772ZM134.764 376.772V380H136.764V376.772H134.764ZM135.764 379H134.564V381H135.764V379ZM134.764 372.68V375.692H136.764V372.68H134.764ZM135.764 376.692H138.944V374.692H135.764V376.692ZM139.944 375.692V372.68H137.944V375.692H139.944ZM138.944 371.68H135.764V373.68H138.944V371.68ZM151.268 379.256L151.768 380.122L152.268 379.833V379.256H151.268ZM149.876 380.06V381.06H150.144L150.376 380.926L149.876 380.06ZM146.36 380.06L145.86 380.926L146.092 381.06H146.36V380.06ZM144.968 379.256H143.968V379.833L144.468 380.122L144.968 379.256ZM144.968 372.344L144.468 371.478L143.968 371.767V372.344H144.968ZM146.36 371.54V370.54H146.092L145.86 370.674L146.36 371.54ZM149.876 371.54L150.376 370.674L150.144 370.54H149.876V371.54ZM151.268 372.344H152.268V371.767L151.768 371.478L151.268 372.344ZM146.168 372.62V371.62H145.168V372.62H146.168ZM146.168 378.98H145.168V379.98H146.168V378.98ZM150.068 378.98V379.98H151.068V378.98H150.068ZM150.068 372.62H151.068V371.62H150.068V372.62ZM150.768 378.39L149.376 379.194L150.376 380.926L151.768 380.122L150.768 378.39ZM149.876 379.06H146.36V381.06H149.876V379.06ZM146.86 379.194L145.468 378.39L144.468 380.122L145.86 380.926L146.86 379.194ZM145.968 379.256V372.344H143.968V379.256H145.968ZM145.468 373.21L146.86 372.406L145.86 370.674L144.468 371.478L145.468 373.21ZM146.36 372.54H149.876V370.54H146.36V372.54ZM149.376 372.406L150.768 373.21L151.768 371.478L150.376 370.674L149.376 372.406ZM150.268 372.344V379.256H152.268V372.344H150.268ZM145.168 372.62V378.98H147.168V372.62H145.168ZM146.168 379.98H150.068V377.98H146.168V379.98ZM151.068 378.98V372.62H149.068V378.98H151.068ZM150.068 371.62H146.168V373.62H150.068V371.62ZM156.333 380H155.333V381H156.333V380ZM156.333 371.6V370.6H155.333V371.6H156.333ZM157.533 371.6H158.533V370.6H157.533V371.6ZM157.533 380V381H158.533V380H157.533ZM157.333 380V371.6H155.333V380H157.333ZM156.333 372.6H157.533V370.6H156.333V372.6ZM156.533 371.6V380H158.533V371.6H156.533ZM157.533 379H156.333V381H157.533V379ZM163.8 373.652V372.652H162.8V373.652H163.8ZM163.8 380V381H164.8V380H163.8ZM162.6 380H161.6V381H162.6V380ZM162.6 371.6V370.6H161.6V371.6H162.6ZM163.692 371.6L164.517 371.035L164.219 370.6H163.692V371.6ZM168.036 377.948L167.211 378.513L167.509 378.948H168.036V377.948ZM168.06 377.948V378.948H169.06V377.948H168.06ZM168.06 371.6V370.6H167.06V371.6H168.06ZM169.26 371.6H170.26V370.6H169.26V371.6ZM169.26 380V381H170.26V380H169.26ZM168.168 380L167.343 380.565L167.641 381H168.168V380ZM163.824 373.652L164.649 373.087L164.351 372.652H163.824V373.652ZM162.8 373.652V380H164.8V373.652H162.8ZM163.8 379H162.6V381H163.8V379ZM163.6 380V371.6H161.6V380H163.6ZM162.6 372.6H163.692V370.6H162.6V372.6ZM162.867 372.165L167.211 378.513L168.861 377.383L164.517 371.035L162.867 372.165ZM168.036 378.948H168.06V376.948H168.036V378.948ZM169.06 377.948V371.6H167.06V377.948H169.06ZM168.06 372.6H169.26V370.6H168.06V372.6ZM168.26 371.6V380H170.26V371.6H168.26ZM169.26 379H168.168V381H169.26V379ZM168.993 379.435L164.649 373.087L162.999 374.217L167.343 380.565L168.993 379.435ZM163.824 372.652H163.8V374.652H163.824V372.652ZM177.196 372.68V371.68H176.196V372.68H177.196ZM177.196 380V381H178.196V380H177.196ZM175.996 380H174.996V381H175.996V380ZM175.996 372.68H176.996V371.68H175.996V372.68ZM173.608 372.68H172.608V373.68H173.608V372.68ZM173.608 371.6V370.6H172.608V371.6H173.608ZM179.584 371.6H180.584V370.6H179.584V371.6ZM179.584 372.68V373.68H180.584V372.68H179.584ZM176.196 372.68V380H178.196V372.68H176.196ZM177.196 379H175.996V381H177.196V379ZM176.996 380V372.68H174.996V380H176.996ZM175.996 371.68H173.608V373.68H175.996V371.68ZM174.608 372.68V371.6H172.608V372.68H174.608ZM173.608 372.6H179.584V370.6H173.608V372.6ZM178.584 371.6V372.68H180.584V371.6H178.584ZM179.584 371.68H177.196V373.68H179.584V371.68ZM183.924 375.56H182.924V376.137L183.423 376.426L183.924 375.56ZM183.924 372.344L183.423 371.478L182.924 371.767V372.344H183.924ZM185.316 371.54V370.54H185.048L184.815 370.674L185.316 371.54ZM188.112 371.54L188.612 370.674L188.38 370.54H188.112V371.54ZM189.504 372.344H190.504V371.767L190.004 371.478L189.504 372.344ZM189.504 373.58V374.58H190.504V373.58H189.504ZM188.304 373.58H187.304V374.58H188.304V373.58ZM188.304 372.62H189.304V371.62H188.304V372.62ZM185.124 372.62V371.62H184.124V372.62H185.124ZM185.124 375.164H184.124V376.164H185.124V375.164ZM188.112 375.164L188.612 374.298L188.38 374.164H188.112V375.164ZM189.504 375.968H190.504V375.391L190.004 375.102L189.504 375.968ZM189.504 379.256L190.004 380.122L190.504 379.833V379.256H189.504ZM188.112 380.06V381.06H188.38L188.612 380.926L188.112 380.06ZM185.196 380.06L184.695 380.926L184.928 381.06H185.196V380.06ZM183.804 379.256H182.804V379.833L183.303 380.122L183.804 379.256ZM183.804 378.02V377.02H182.804V378.02H183.804ZM185.004 378.02H186.004V377.02H185.004V378.02ZM185.004 378.98H184.004V379.98H185.004V378.98ZM188.304 378.98V379.98H189.304V378.98H188.304ZM188.304 376.364H189.304V375.364H188.304V376.364ZM185.316 376.364L184.815 377.23L185.048 377.364H185.316V376.364ZM184.924 375.56V372.344H182.924V375.56H184.924ZM184.424 373.21L185.816 372.406L184.815 370.674L183.423 371.478L184.424 373.21ZM185.316 372.54H188.112V370.54H185.316V372.54ZM187.611 372.406L189.003 373.21L190.004 371.478L188.612 370.674L187.611 372.406ZM188.504 372.344V373.58H190.504V372.344H188.504ZM189.504 372.58H188.304V374.58H189.504V372.58ZM189.304 373.58V372.62H187.304V373.58H189.304ZM188.304 371.62H185.124V373.62H188.304V371.62ZM184.124 372.62V375.164H186.124V372.62H184.124ZM185.124 376.164H188.112V374.164H185.124V376.164ZM187.611 376.03L189.003 376.834L190.004 375.102L188.612 374.298L187.611 376.03ZM188.504 375.968V379.256H190.504V375.968H188.504ZM189.003 378.39L187.611 379.194L188.612 380.926L190.004 380.122L189.003 378.39ZM188.112 379.06H185.196V381.06H188.112V379.06ZM185.696 379.194L184.304 378.39L183.303 380.122L184.695 380.926L185.696 379.194ZM184.804 379.256V378.02H182.804V379.256H184.804ZM183.804 379.02H185.004V377.02H183.804V379.02ZM184.004 378.02V378.98H186.004V378.02H184.004ZM185.004 379.98H188.304V377.98H185.004V379.98ZM189.304 378.98V376.364H187.304V378.98H189.304ZM188.304 375.364H185.316V377.364H188.304V375.364ZM185.816 375.498L184.424 374.694L183.423 376.426L184.815 377.23L185.816 375.498Z" fill="#FFF70C" mask="url(#path-18-outside-3_5_4)"/>
<mask id="path-20-inside-4_5_4" fill="white">
<path fill-rule="evenodd" clip-rule="evenodd" d="M61.9555 366.253H69.7719L57.2656 378.759L69.7719 391.266H61.9555L49.4492 378.759L61.9555 366.253ZM74.462 366.253H82.2784L69.7721 378.759L82.2784 391.266H74.462L61.9556 378.759L74.462 366.253ZM94.7849 366.253H86.9685L74.4621 378.759L86.9685 391.266H94.7849L82.2786 378.759L94.7849 366.253Z"/>
</mask>
<path fill-rule="evenodd" clip-rule="evenodd" d="M61.9555 366.253H69.7719L57.2656 378.759L69.7719 391.266H61.9555L49.4492 378.759L61.9555 366.253ZM74.462 366.253H82.2784L69.7721 378.759L82.2784 391.266H74.462L61.9556 378.759L74.462 366.253ZM94.7849 366.253H86.9685L74.4621 378.759L86.9685 391.266H94.7849L82.2786 378.759L94.7849 366.253Z" fill="url(#paint3_linear_5_4)"/>
<path d="M69.7719 366.253L70.479 366.96L72.1862 365.253H69.7719V366.253ZM61.9555 366.253V365.253H61.5413L61.2484 365.546L61.9555 366.253ZM57.2656 378.759L56.5585 378.052L55.8514 378.759L56.5585 379.467L57.2656 378.759ZM69.7719 391.266V392.266H72.1862L70.479 390.559L69.7719 391.266ZM61.9555 391.266L61.2484 391.973L61.5413 392.266H61.9555V391.266ZM49.4492 378.759L48.7421 378.052L48.0349 378.759L48.7421 379.467L49.4492 378.759ZM82.2784 366.253L82.9855 366.96L84.6926 365.253H82.2784V366.253ZM74.462 366.253V365.253H74.0478L73.7549 365.546L74.462 366.253ZM69.7721 378.759L69.065 378.052L68.3579 378.759L69.065 379.467L69.7721 378.759ZM82.2784 391.266V392.266H84.6926L82.9855 390.559L82.2784 391.266ZM74.462 391.266L73.7549 391.973L74.0478 392.266H74.462V391.266ZM61.9556 378.759L61.2485 378.052L60.5414 378.759L61.2485 379.467L61.9556 378.759ZM86.9685 366.253V365.253H86.5543L86.2614 365.546L86.9685 366.253ZM94.7849 366.253L95.492 366.96L97.1991 365.253H94.7849V366.253ZM74.4621 378.759L73.755 378.052L73.0479 378.759L73.755 379.467L74.4621 378.759ZM86.9685 391.266L86.2614 391.973L86.5543 392.266H86.9685V391.266ZM94.7849 391.266V392.266H97.1991L95.492 390.559L94.7849 391.266ZM82.2786 378.759L81.5715 378.052L80.8644 378.759L81.5715 379.467L82.2786 378.759ZM69.7719 365.253H61.9555V367.253H69.7719V365.253ZM57.9727 379.467L70.479 366.96L69.0648 365.546L56.5585 378.052L57.9727 379.467ZM70.479 390.559L57.9727 378.052L56.5585 379.467L69.0648 391.973L70.479 390.559ZM61.9555 392.266H69.7719V390.266H61.9555V392.266ZM48.7421 379.467L61.2484 391.973L62.6626 390.559L50.1563 378.052L48.7421 379.467ZM61.2484 365.546L48.7421 378.052L50.1563 379.467L62.6626 366.96L61.2484 365.546ZM82.2784 365.253H74.462V367.253H82.2784V365.253ZM70.4792 379.467L82.9855 366.96L81.5713 365.546L69.065 378.052L70.4792 379.467ZM82.9855 390.559L70.4792 378.052L69.065 379.467L81.5713 391.973L82.9855 390.559ZM74.462 392.266H82.2784V390.266H74.462V392.266ZM61.2485 379.467L73.7549 391.973L75.1691 390.559L62.6627 378.052L61.2485 379.467ZM73.7549 365.546L61.2485 378.052L62.6627 379.467L75.1691 366.96L73.7549 365.546ZM86.9685 367.253H94.7849V365.253H86.9685V367.253ZM75.1693 379.467L87.6756 366.96L86.2614 365.546L73.755 378.052L75.1693 379.467ZM87.6756 390.559L75.1693 378.052L73.755 379.467L86.2614 391.973L87.6756 390.559ZM94.7849 390.266H86.9685V392.266H94.7849V390.266ZM81.5715 379.467L94.0778 391.973L95.492 390.559L82.9857 378.052L81.5715 379.467ZM94.0778 365.546L81.5715 378.052L82.9857 379.467L95.492 366.96L94.0778 365.546Z" fill="#FFF70C" mask="url(#path-20-inside-4_5_4)"/>
<mask id="path-22-inside-5_5_4" fill="white">
<path fill-rule="evenodd" clip-rule="evenodd" d="M243.297 366.253H235.481L247.987 378.759L235.481 391.266H243.297L255.804 378.759L243.297 366.253ZM230.791 366.253H222.975L235.481 378.759L222.975 391.266L230.791 391.266L243.298 378.759L230.791 366.253ZM210.468 366.253H218.284L230.791 378.759L218.284 391.266H210.468L222.974 378.759L210.468 366.253Z"/>
</mask>
<path fill-rule="evenodd" clip-rule="evenodd" d="M243.297 366.253H235.481L247.987 378.759L235.481 391.266H243.297L255.804 378.759L243.297 366.253ZM230.791 366.253H222.975L235.481 378.759L222.975 391.266L230.791 391.266L243.298 378.759L230.791 366.253ZM210.468 366.253H218.284L230.791 378.759L218.284 391.266H210.468L222.974 378.759L210.468 366.253Z" fill="url(#paint4_linear_5_4)"/>
<path d="M235.481 366.253L234.774 366.96L233.067 365.253H235.481V366.253ZM243.297 366.253V365.253H243.711L244.004 365.546L243.297 366.253ZM247.987 378.759L248.694 378.052L249.401 378.759L248.694 379.467L247.987 378.759ZM235.481 391.266V392.266H233.067L234.774 390.559L235.481 391.266ZM243.297 391.266L244.004 391.973L243.711 392.266H243.297V391.266ZM255.804 378.759L256.511 378.052L257.218 378.759L256.511 379.467L255.804 378.759ZM222.975 366.253L222.268 366.96L220.561 365.253H222.975V366.253ZM230.791 366.253V365.253H231.205L231.498 365.546L230.791 366.253ZM235.481 378.759L236.188 378.052L236.895 378.759L236.188 379.467L235.481 378.759ZM222.975 391.266V392.266H220.561L222.268 390.559L222.975 391.266ZM230.791 391.266L231.498 391.973L231.205 392.266H230.791V391.266ZM243.298 378.759L244.005 378.052L244.712 378.759L244.005 379.467L243.298 378.759ZM218.284 366.253V365.253H218.699L218.991 365.546L218.284 366.253ZM210.468 366.253L209.761 366.96L208.054 365.253H210.468V366.253ZM230.791 378.759L231.498 378.052L232.205 378.759L231.498 379.467L230.791 378.759ZM218.284 391.266L218.991 391.973L218.699 392.266H218.284V391.266ZM210.468 391.266V392.266H208.054L209.761 390.559L210.468 391.266ZM222.974 378.759L223.681 378.052L224.388 378.759L223.681 379.467L222.974 378.759ZM235.481 365.253H243.297V367.253H235.481V365.253ZM247.28 379.467L234.774 366.96L236.188 365.546L248.694 378.052L247.28 379.467ZM234.774 390.559L247.28 378.052L248.694 379.467L236.188 391.973L234.774 390.559ZM243.297 392.266H235.481V390.266H243.297V392.266ZM256.511 379.467L244.004 391.973L242.59 390.559L255.096 378.052L256.511 379.467ZM244.004 365.546L256.511 378.052L255.096 379.467L242.59 366.96L244.004 365.546ZM222.975 365.253H230.791V367.253H222.975V365.253ZM234.774 379.467L222.268 366.96L223.682 365.546L236.188 378.052L234.774 379.467ZM222.268 390.559L234.774 378.052L236.188 379.467L223.682 391.973L222.268 390.559ZM230.791 392.266L222.975 392.266V390.266L230.791 390.266V392.266ZM244.005 379.467L231.498 391.973L230.084 390.559L242.59 378.052L244.005 379.467ZM231.498 365.546L244.005 378.052L242.59 379.467L230.084 366.96L231.498 365.546ZM218.284 367.253H210.468V365.253H218.284V367.253ZM230.084 379.467L217.577 366.96L218.991 365.546L231.498 378.052L230.084 379.467ZM217.577 390.559L230.084 378.052L231.498 379.467L218.991 391.973L217.577 390.559ZM210.468 390.266H218.284V392.266H210.468V390.266ZM223.681 379.467L211.175 391.973L209.761 390.559L222.267 378.052L223.681 379.467ZM211.175 365.546L223.681 378.052L222.267 379.467L209.761 366.96L211.175 365.546Z" fill="#FFF70C" mask="url(#path-22-inside-5_5_4)"/>
</g>
<rect x="-1" y="1" width="297" height="446.5" rx="11" transform="matrix(-1 0 0 1 297 0)" stroke="#FCD08E" stroke-width="2"/>
<defs>
<filter id="filter0_d_5_4" x="6.5" y="3.5" width="286" height="314.5" filterUnits="userSpaceOnUse" color-interpolation-filters="sRGB">
<feFlood flood-opacity="0" result="BackgroundImageFix"/>
<feColorMatrix in="SourceAlpha" type="matrix" values="0 0 0 0 0 0 0 0 0 0 0 0 0 0 0 0 0 0 127 0" result="hardAlpha"/>
<feOffset dy="14"/>
<feGaussianBlur stdDeviation="22.75"/>
<feColorMatrix type="matrix" values="0 0 0 0 0.97448 0 0 0 0 0.975 0 0 0 0 0.95875 0 0 0 1 0"/>
<feBlend mode="normal" in2="BackgroundImageFix" result="effect1_dropShadow_5_4"/>
<feBlend mode="normal" in="SourceGraphic" in2="effect1_dropShadow_5_4" result="shape"/>
</filter>
<filter id="filter1_dddddd_5_4" x="84.342" y="-17.408" width="239.816" height="327.816" filterUnits="userSpaceOnUse" color-interpolation-filters="sRGB">
<feFlood flood-opacity="0" result="BackgroundImageFix"/>
<feColorMatrix in="SourceAlpha" type="matrix" values="0 0 0 0 0 0 0 0 0 0 0 0 0 0 0 0 0 0 127 0" result="hardAlpha"/>
<feOffset/>
<feGaussianBlur stdDeviation="1.1745"/>
<feColorMatrix type="matrix" values="0 0 0 0 0.968627 0 0 0 0 1 0 0 0 0 0.0196078 0 0 0 1 0"/>
<feBlend mode="normal" in2="BackgroundImageFix" result="effect1_dropShadow_5_4"/>
<feColorMatrix in="SourceAlpha" type="matrix" values="0 0 0 0 0 0 0 0 0 0 0 0 0 0 0 0 0 0 127 0" result="hardAlpha"/>
<feOffset/>
<feGaussianBlur stdDeviation="2.349"/>
<feColorMatrix type="matrix" values="0 0 0 0 0.968627 0 0 0 0 1 0 0 0 0 0.0196078 0 0 0 1 0"/>
<feBlend mode="normal" in2="effect1_dropShadow_5_4" result="effect2_dropShadow_5_4"/>
<feColorMatrix in="SourceAlpha" type="matrix" values="0 0 0 0 0 0 0 0 0 0 0 0 0 0 0 0 0 0 127 0" result="hardAlpha"/>
<feOffset/>
<feGaussianBlur stdDeviation="8.2215"/>
<feColorMatrix type="matrix" values="0 0 0 0 0.968627 0 0 0 0 1 0 0 0 0 0.0196078 0 0 0 1 0"/>
<feBlend mode="normal" in2="effect2_dropShadow_5_4" result="effect3_dropShadow_5_4"/>
<feColorMatrix in="SourceAlpha" type="matrix" values="0 0 0 0 0 0 0 0 0 0 0 0 0 0 0 0 0 0 127 0" result="hardAlpha"/>
<feOffset/>
<feGaussianBlur stdDeviation="16.443"/>
<feColorMatrix type="matrix" values="0 0 0 0 0.968627 0 0 0 0 1 0 0 0 0 0.0196078 0 0 0 1 0"/>
<feBlend mode="normal" in2="effect3_dropShadow_5_4" result="effect4_dropShadow_5_4"/>
<feColorMatrix in="SourceAlpha" type="matrix" values="0 0 0 0 0 0 0 0 0 0 0 0 0 0 0 0 0 0 127 0" result="hardAlpha"/>
<feOffset/>
<feGaussianBlur stdDeviation="28.188"/>
<feColorMatrix type="matrix" values="0 0 0 0 0.968627 0 0 0 0 1 0 0 0 0 0.0196078 0 0 0 1 0"/>
<feBlend mode="normal" in2="effect4_dropShadow_5_4" result="effect5_dropShadow_5_4"/>
<feColorMatrix in="SourceAlpha" type="matrix" values="0 0 0 0 0 0 0 0 0 0 0 0 0 0 0 0 0 0 127 0" result="hardAlpha"/>
<feOffset/>
<feGaussianBlur stdDeviation="49.329"/>
<feColorMatrix type="matrix" values="0 0 0 0 0.968627 0 0 0 0 1 0 0 0 0 0.0196078 0 0 0 1 0"/>
<feBlend mode="normal" in2="effect5_dropShadow_5_4" result="effect6_dropShadow_5_4"/>
<feBlend mode="normal" in="SourceGraphic" in2="effect6_dropShadow_5_4" result="shape"/>
</filter>
<filter id="filter2_dddddd_5_4" x="-24.908" y="-16.658" width="239.566" height="327.816" filterUnits="userSpaceOnUse" color-interpolation-filters="sRGB">
<feFlood flood-opacity="0" result="BackgroundImageFix"/>
<feColorMatrix in="SourceAlpha" type="matrix" values="0 0 0 0 0 0 0 0 0 0 0 0 0 0 0 0 0 0 127 0" result="hardAlpha"/>
<feOffset/>
<feGaussianBlur stdDeviation="1.1745"/>
<feColorMatrix type="matrix" values="0 0 0 0 0.964706 0 0 0 0 1 0 0 0 0 0 0 0 0 1 0"/>
<feBlend mode="normal" in2="BackgroundImageFix" result="effect1_dropShadow_5_4"/>
<feColorMatrix in="SourceAlpha" type="matrix" values="0 0 0 0 0 0 0 0 0 0 0 0 0 0 0 0 0 0 127 0" result="hardAlpha"/>
<feOffset/>
<feGaussianBlur stdDeviation="2.349"/>
<feColorMatrix type="matrix" values="0 0 0 0 0.964706 0 0 0 0 1 0 0 0 0 0 0 0 0 1 0"/>
<feBlend mode="normal" in2="effect1_dropShadow_5_4" result="effect2_dropShadow_5_4"/>
<feColorMatrix in="SourceAlpha" type="matrix" values="0 0 0 0 0 0 0 0 0 0 0 0 0 0 0 0 0 0 127 0" result="hardAlpha"/>
<feOffset/>
<feGaussianBlur stdDeviation="8.2215"/>
<feColorMatrix type="matrix" values="0 0 0 0 0.964706 0 0 0 0 1 0 0 0 0 0 0 0 0 1 0"/>
<feBlend mode="normal" in2="effect2_dropShadow_5_4" result="effect3_dropShadow_5_4"/>
<feColorMatrix in="SourceAlpha" type="matrix" values="0 0 0 0 0 0 0 0 0 0 0 0 0 0 0 0 0 0 127 0" result="hardAlpha"/>
<feOffset/>
<feGaussianBlur stdDeviation="16.443"/>
<feColorMatrix type="matrix" values="0 0 0 0 0.964706 0 0 0 0 1 0 0 0 0 0 0 0 0 1 0"/>
<feBlend mode="normal" in2="effect3_dropShadow_5_4" result="effect4_dropShadow_5_4"/>
<feColorMatrix in="SourceAlpha" type="matrix" values="0 0 0 0 0 0 0 0 0 0 0 0 0 0 0 0 0 0 127 0" result="hardAlpha"/>
<feOffset/>
<feGaussianBlur stdDeviation="28.188"/>
<feColorMatrix type="matrix" values="0 0 0 0 0.964706 0 0 0 0 1 0 0 0 0 0 0 0 0 1 0"/>
<feBlend mode="normal" in2="effect4_dropShadow_5_4" result="effect5_dropShadow_5_4"/>
<feColorMatrix in="SourceAlpha" type="matrix" values="0 0 0 0 0 0 0 0 0 0 0 0 0 0 0 0 0 0 127 0" result="hardAlpha"/>
<feOffset/>
<feGaussianBlur stdDeviation="49.329"/>
<feColorMatrix type="matrix" values="0 0 0 0 0.964706 0 0 0 0 1 0 0 0 0 0 0 0 0 1 0"/>
<feBlend mode="normal" in2="effect5_dropShadow_5_4" result="effect6_dropShadow_5_4"/>
<feBlend mode="normal" in="SourceGraphic" in2="effect6_dropShadow_5_4" result="shape"/>
</filter>
<filter id="filter3_dddddd_5_4" x="9.798" y="-0.202003" width="279.404" height="293.904" filterUnits="userSpaceOnUse" color-interpolation-filters="sRGB">
<feFlood flood-opacity="0" result="BackgroundImageFix"/>
<feColorMatrix in="SourceAlpha" type="matrix" values="0 0 0 0 0 0 0 0 0 0 0 0 0 0 0 0 0 0 127 0" result="hardAlpha"/>
<feOffset/>
<feGaussianBlur stdDeviation="1.053"/>
<feColorMatrix type="matrix" values="0 0 0 0 0.964706 0 0 0 0 1 0 0 0 0 0 0 0 0 1 0"/>
<feBlend mode="normal" in2="BackgroundImageFix" result="effect1_dropShadow_5_4"/>
<feColorMatrix in="SourceAlpha" type="matrix" values="0 0 0 0 0 0 0 0 0 0 0 0 0 0 0 0 0 0 127 0" result="hardAlpha"/>
<feOffset/>
<feGaussianBlur stdDeviation="2.106"/>
<feColorMatrix type="matrix" values="0 0 0 0 0.964706 0 0 0 0 1 0 0 0 0 0 0 0 0 1 0"/>
<feBlend mode="normal" in2="effect1_dropShadow_5_4" result="effect2_dropShadow_5_4"/>
<feColorMatrix in="SourceAlpha" type="matrix" values="0 0 0 0 0 0 0 0 0 0 0 0 0 0 0 0 0 0 127 0" result="hardAlpha"/>
<feOffset/>
<feGaussianBlur stdDeviation="7.371"/>
<feColorMatrix type="matrix" values="0 0 0 0 0.964706 0 0 0 0 1 0 0 0 0 0 0 0 0 1 0"/>
<feBlend mode="normal" in2="effect2_dropShadow_5_4" result="effect3_dropShadow_5_4"/>
<feColorMatrix in="SourceAlpha" type="matrix" values="0 0 0 0 0 0 0 0 0 0 0 0 0 0 0 0 0 0 127 0" result="hardAlpha"/>
<feOffset/>
<feGaussianBlur stdDeviation="14.742"/>
<feColorMatrix type="matrix" values="0 0 0 0 0.964706 0 0 0 0 1 0 0 0 0 0 0 0 0 1 0"/>
<feBlend mode="normal" in2="effect3_dropShadow_5_4" result="effect4_dropShadow_5_4"/>
<feColorMatrix in="SourceAlpha" type="matrix" values="0 0 0 0 0 0 0 0 0 0 0 0 0 0 0 0 0 0 127 0" result="hardAlpha"/>
<feOffset/>
<feGaussianBlur stdDeviation="25.272"/>
<feColorMatrix type="matrix" values="0 0 0 0 0.964706 0 0 0 0 1 0 0 0 0 0 0 0 0 1 0"/>
<feBlend mode="normal" in2="effect4_dropShadow_5_4" result="effect5_dropShadow_5_4"/>
<feColorMatrix in="SourceAlpha" type="matrix" values="0 0 0 0 0 0 0 0 0 0 0 0 0 0 0 0 0 0 127 0" result="hardAlpha"/>
<feOffset/>
<feGaussianBlur stdDeviation="44.226"/>
<feColorMatrix type="matrix" values="0 0 0 0 0.964706 0 0 0 0 1 0 0 0 0 0 0 0 0 1 0"/>
<feBlend mode="normal" in2="effect5_dropShadow_5_4" result="effect6_dropShadow_5_4"/>
<feBlend mode="normal" in="SourceGraphic" in2="effect6_dropShadow_5_4" result="shape"/>
</filter>
<filter id="filter4_f_5_4" x="17" y="390.082" width="255.62" height="21.1266" filterUnits="userSpaceOnUse" color-interpolation-filters="sRGB">
<feFlood flood-opacity="0" result="BackgroundImageFix"/>
<feBlend mode="normal" in="SourceGraphic" in2="BackgroundImageFix" result="shape"/>
<feGaussianBlur stdDeviation="4.5" result="effect1_foregroundBlur_5_4"/>
</filter>
<radialGradient id="paint0_radial_5_4" cx="0" cy="0" r="1" gradientUnits="userSpaceOnUse" gradientTransform="translate(147.9 222.9) scale(269.2 266.769)">
<stop stop-color="#FCFC8E" stop-opacity="0.2"/>
<stop offset="0.8" stop-color="#EFFC8E" stop-opacity="0.6"/>
<stop offset="1" stop-color="#F8FC8E" stop-opacity="0.9"/>
</radialGradient>
<radialGradient id="paint1_radial_5_4" cx="0" cy="0" r="1" gradientUnits="userSpaceOnUse" gradientTransform="translate(155.753 396.737) rotate(90) scale(7.03481 117.247)">
<stop stop-color="#F6FF76"/>
<stop offset="1" stop-color="#FFFA76" stop-opacity="0"/>
</radialGradient>
<radialGradient id="paint2_radial_5_4" cx="0" cy="0" r="1" gradientUnits="userSpaceOnUse" gradientTransform="translate(144.81 400.646) rotate(90) scale(1.56329 118.81)">
<stop stop-color="#F6FF76"/>
<stop offset="1" stop-color="#FFFA76" stop-opacity="0"/>
</radialGradient>
<linearGradient id="paint3_linear_5_4" x1="49.4492" y1="378.759" x2="86.9684" y2="378.759" gradientUnits="userSpaceOnUse">
<stop stop-color="#DBFA53"/>
<stop offset="1" stop-color="#F4FA53" stop-opacity="0"/>
</linearGradient>
<linearGradient id="paint4_linear_5_4" x1="255.804" y1="378.759" x2="218.284" y2="378.759" gradientUnits="userSpaceOnUse">
<stop stop-color="#DBFA53"/>
<stop offset="1" stop-color="#F4FA53" stop-opacity="0"/>
</linearGradient>
<clipPath id="clip0_5_4">
<rect width="299" height="448.5" rx="12" transform="matrix(-1 0 0 1 299 0)" fill="white"/>
</clipPath>
</defs>
</svg>
