<svg width="852" height="266" viewBox="0 0 852 266" fill="none" xmlns="http://www.w3.org/2000/svg">
<g clip-path="url(#clip0_2009_17195)">
<rect width="266" height="852" transform="matrix(0 -1 1 0 0 266)" fill="url(#paint0_radial_2009_17195)"/>
<g opacity="0.05">
<path d="M596.438 7.5459L596.438 -20.4541C596.438 -22.3106 597.176 -24.0911 598.489 -25.4038C599.801 -26.7166 601.582 -27.4541 603.438 -27.4541L645.438 -27.4541C647.295 -27.4541 649.075 -26.7166 650.388 -25.4038C651.701 -24.0911 652.438 -22.3106 652.438 -20.4541L652.438 7.5459C652.438 9.40241 651.701 11.1829 650.388 12.4956C649.075 13.8084 647.295 14.5459 645.438 14.5459L603.438 14.5459C601.582 14.5459 599.801 13.8084 598.489 12.4956C597.176 11.1829 596.438 9.40241 596.438 7.5459ZM620.203 -16.6286C619.942 -16.8149 619.634 -16.9256 619.313 -16.9486C618.993 -16.9715 618.673 -16.9058 618.387 -16.7587C618.101 -16.6116 617.862 -16.3887 617.695 -16.1145C617.527 -15.8403 617.439 -15.5253 617.438 -15.2041L617.438 2.2959C617.439 2.61712 617.527 2.93209 617.695 3.2063C617.862 3.48051 618.101 3.70339 618.387 3.8505C618.673 3.99761 618.993 4.0633 619.313 4.04035C619.634 4.0174 619.942 3.90671 620.203 3.7204L632.453 -5.0296C632.68 -5.19148 632.865 -5.4052 632.993 -5.65298C633.12 -5.90075 633.187 -6.17541 633.187 -6.4541C633.187 -6.73279 633.12 -7.00745 632.993 -7.25523C632.865 -7.503 632.68 -7.71672 632.453 -7.8786L620.203 -16.6286Z" fill="white"/>
<path d="M750.515 35.1816L750.515 7.18164C750.515 5.32513 751.253 3.54465 752.565 2.23189C753.878 0.919138 755.659 0.181641 757.515 0.181641L799.515 0.181641C801.372 0.181641 803.152 0.919138 804.465 2.23189C805.778 3.54465 806.515 5.32513 806.515 7.18164L806.515 35.1816C806.515 37.0382 805.778 38.8186 804.465 40.1314C803.152 41.4441 801.372 42.1816 799.515 42.1816L757.515 42.1816C755.659 42.1816 753.878 41.4441 752.565 40.1314C751.253 38.8186 750.515 37.0382 750.515 35.1816ZM774.28 11.0071C774.018 10.8208 773.711 10.7101 773.39 10.6872C773.07 10.6642 772.749 10.7299 772.464 10.877C772.178 11.0242 771.939 11.247 771.771 11.5212C771.604 11.7954 771.515 12.1104 771.515 12.4316L771.515 29.9316C771.515 30.2529 771.604 30.5678 771.771 30.842C771.939 31.1163 772.178 31.3391 772.464 31.4862C772.749 31.6334 773.07 31.699 773.39 31.6761C773.711 31.6531 774.018 31.5424 774.28 31.3561L786.53 22.6061C786.757 22.4443 786.942 22.2305 787.069 21.9828C787.197 21.735 787.264 21.4603 787.264 21.1816C787.264 20.903 787.197 20.6283 787.069 20.3805C786.942 20.1327 786.757 19.919 786.53 19.7571L774.28 11.0071Z" fill="white"/>
<path d="M-46.3896 44.8701L-46.3896 16.8701C-46.3896 15.0136 -45.6522 13.2331 -44.3394 11.9204C-43.0266 10.6076 -41.2462 9.87012 -39.3896 9.87012L2.61035 9.87012C4.46687 9.87012 6.24734 10.6076 7.5601 11.9204C8.87285 13.2331 9.61035 15.0136 9.61035 16.8701L9.61035 44.8701C9.61035 46.7266 8.87285 48.5071 7.5601 49.8199C6.24734 51.1326 4.46687 51.8701 2.61035 51.8701L-39.3896 51.8701C-41.2462 51.8701 -43.0266 51.1326 -44.3394 49.8199C-45.6522 48.5071 -46.3896 46.7266 -46.3896 44.8701ZM-22.6246 20.6956C-22.8863 20.5093 -23.1942 20.3986 -23.5146 20.3757C-23.835 20.3527 -24.1556 20.4184 -24.4411 20.5655C-24.7267 20.7126 -24.9662 20.9355 -25.1335 21.2097C-25.3008 21.4839 -25.3895 21.7989 -25.3896 22.1201L-25.3896 39.6201C-25.3895 39.9413 -25.3008 40.2563 -25.1335 40.5305C-24.9662 40.8047 -24.7267 41.0276 -24.4411 41.1747C-24.1556 41.3218 -23.835 41.3875 -23.5146 41.3646C-23.1942 41.3416 -22.8863 41.2309 -22.6246 41.0446L-10.3746 32.2946C-10.1478 32.1327 -9.96288 31.919 -9.8353 31.6712C-9.70772 31.4235 -9.64116 31.1488 -9.64116 30.8701C-9.64116 30.5914 -9.70772 30.3168 -9.8353 30.069C-9.96288 29.8212 -10.1478 29.6075 -10.3746 29.4456L-22.6246 20.6956Z" fill="white"/>
<path d="M107.687 72.5059L107.687 44.5059C107.687 42.6493 108.425 40.8689 109.737 39.5561C111.05 38.2434 112.83 37.5059 114.687 37.5059L156.687 37.5059C158.544 37.5059 160.324 38.2434 161.637 39.5561C162.95 40.8689 163.687 42.6493 163.687 44.5059L163.687 72.5059C163.687 74.3624 162.95 76.1429 161.637 77.4556C160.324 78.7684 158.544 79.5059 156.687 79.5059L114.687 79.5059C112.83 79.5059 111.05 78.7684 109.737 77.4556C108.425 76.1429 107.687 74.3624 107.687 72.5059ZM131.452 48.3314C131.19 48.1451 130.882 48.0344 130.562 48.0114C130.242 47.9885 129.921 48.0541 129.636 48.2013C129.35 48.3484 129.11 48.5712 128.943 48.8455C128.776 49.1197 128.687 49.4346 128.687 49.7559L128.687 67.2559C128.687 67.5771 128.776 67.8921 128.943 68.1663C129.11 68.4405 129.35 68.6633 129.636 68.8105C129.921 68.9576 130.242 69.0233 130.562 69.0003C130.882 68.9774 131.19 68.8667 131.452 68.6804L143.702 59.9304C143.929 59.7685 144.114 59.5548 144.241 59.307C144.369 59.0592 144.435 58.7846 144.435 58.5059C144.435 58.2272 144.369 57.9525 144.241 57.7047C144.114 57.457 143.929 57.2432 143.702 57.0814L131.452 48.3314Z" fill="white"/>
<path d="M261.764 100.142L261.764 72.1416C261.764 70.2851 262.501 68.5046 263.814 67.1919C265.127 65.8791 266.907 65.1416 268.764 65.1416L310.764 65.1416C312.62 65.1416 314.401 65.8791 315.713 67.1919C317.026 68.5046 317.764 70.2851 317.764 72.1416L317.764 100.142C317.764 101.998 317.026 103.779 315.713 105.091C314.401 106.404 312.62 107.142 310.764 107.142L268.764 107.142C266.907 107.142 265.127 106.404 263.814 105.091C262.501 103.779 261.764 101.998 261.764 100.142ZM285.529 75.9671C285.267 75.7808 284.959 75.6701 284.639 75.6472C284.318 75.6242 283.998 75.6899 283.712 75.837C283.427 75.9841 283.187 76.207 283.02 76.4812C282.852 76.7554 282.764 77.0704 282.764 77.3916L282.764 94.8916C282.764 95.2128 282.852 95.5278 283.02 95.802C283.187 96.0762 283.427 96.2991 283.712 96.4462C283.998 96.5933 284.318 96.659 284.639 96.6361C284.959 96.6131 285.267 96.5024 285.529 96.3161L297.779 87.5661C298.006 87.4042 298.19 87.1905 298.318 86.9427C298.446 86.695 298.512 86.4203 298.512 86.1416C298.512 85.8629 298.446 85.5883 298.318 85.3405C298.19 85.0927 298.006 84.879 297.779 84.7171L285.529 75.9671Z" fill="white"/>
<path d="M415.84 127.777L415.84 99.7773C415.84 97.9208 416.577 96.1404 417.89 94.8276C419.203 93.5148 420.983 92.7773 422.84 92.7773L464.84 92.7773C466.696 92.7773 468.477 93.5148 469.79 94.8276C471.102 96.1404 471.84 97.9208 471.84 99.7773L471.84 127.777C471.84 129.634 471.102 131.414 469.79 132.727C468.477 134.04 466.696 134.777 464.84 134.777L422.84 134.777C420.983 134.777 419.203 134.04 417.89 132.727C416.577 131.414 415.84 129.634 415.84 127.777ZM439.605 103.603C439.343 103.417 439.035 103.306 438.715 103.283C438.394 103.26 438.074 103.326 437.788 103.473C437.503 103.62 437.263 103.843 437.096 104.117C436.929 104.391 436.84 104.706 436.84 105.027L436.84 122.527C436.84 122.849 436.929 123.164 437.096 123.438C437.263 123.712 437.503 123.935 437.788 124.082C438.074 124.229 438.394 124.295 438.715 124.272C439.035 124.249 439.343 124.138 439.605 123.952L451.855 115.202C452.082 115.04 452.267 114.826 452.394 114.578C452.522 114.331 452.588 114.056 452.588 113.777C452.588 113.499 452.522 113.224 452.394 112.976C452.267 112.728 452.082 112.515 451.855 112.353L439.605 103.603Z" fill="white"/>
<path d="M569.917 155.413L569.917 127.413C569.917 125.557 570.654 123.776 571.967 122.463C573.28 121.151 575.06 120.413 576.917 120.413L618.917 120.413C620.773 120.413 622.553 121.151 623.866 122.463C625.179 123.776 625.917 125.557 625.917 127.413L625.917 155.413C625.917 157.27 625.179 159.05 623.866 160.363C622.553 161.676 620.773 162.413 618.917 162.413L576.917 162.413C575.06 162.413 573.28 161.676 571.967 160.363C570.654 159.05 569.917 157.27 569.917 155.413ZM593.682 131.239C593.42 131.052 593.112 130.942 592.792 130.919C592.471 130.896 592.151 130.961 591.865 131.108C591.579 131.256 591.34 131.478 591.173 131.753C591.005 132.027 590.917 132.342 590.917 132.663L590.917 150.163C590.917 150.484 591.005 150.799 591.173 151.073C591.34 151.348 591.579 151.571 591.865 151.718C592.151 151.865 592.471 151.93 592.792 151.908C593.112 151.885 593.42 151.774 593.682 151.588L605.932 142.838C606.158 142.676 606.343 142.462 606.471 142.214C606.598 141.966 606.665 141.692 606.665 141.413C606.665 141.134 606.598 140.86 606.471 140.612C606.343 140.364 606.158 140.15 605.932 139.989L593.682 131.239Z" fill="white"/>
<path d="M723.993 183.049L723.993 155.049C723.993 153.192 724.731 151.412 726.043 150.099C727.356 148.786 729.137 148.049 730.993 148.049L772.993 148.049C774.85 148.049 776.63 148.786 777.943 150.099C779.256 151.412 779.993 153.192 779.993 155.049L779.993 183.049C779.993 184.905 779.256 186.686 777.943 187.999C776.63 189.311 774.85 190.049 772.993 190.049L730.993 190.049C729.137 190.049 727.356 189.311 726.043 187.999C724.731 186.686 723.993 184.905 723.993 183.049ZM747.758 158.874C747.496 158.688 747.189 158.577 746.868 158.554C746.548 158.531 746.227 158.597 745.942 158.744C745.656 158.891 745.417 159.114 745.249 159.388C745.082 159.663 744.993 159.978 744.993 160.299L744.993 177.799C744.993 178.12 745.082 178.435 745.249 178.709C745.417 178.983 745.656 179.206 745.942 179.353C746.227 179.501 746.548 179.566 746.868 179.543C747.189 179.52 747.496 179.41 747.758 179.223L760.008 170.473C760.235 170.311 760.42 170.098 760.548 169.85C760.675 169.602 760.742 169.328 760.742 169.049C760.742 168.77 760.675 168.495 760.548 168.248C760.42 168 760.235 167.786 760.008 167.624L747.758 158.874Z" fill="white"/>
<path d="M81.165 220.373L81.165 192.373C81.165 190.517 81.9025 188.736 83.2153 187.423C84.528 186.111 86.3085 185.373 88.165 185.373L130.165 185.373C132.022 185.373 133.802 186.111 135.115 187.423C136.428 188.736 137.165 190.517 137.165 192.373L137.165 220.373C137.165 222.23 136.428 224.01 135.115 225.323C133.802 226.636 132.022 227.373 130.165 227.373L88.165 227.373C86.3085 227.373 84.528 226.636 83.2153 225.323C81.9025 224.01 81.165 222.23 81.165 220.373ZM104.93 196.199C104.668 196.012 104.36 195.902 104.04 195.879C103.72 195.856 103.399 195.921 103.114 196.068C102.828 196.216 102.588 196.438 102.421 196.713C102.254 196.987 102.165 197.302 102.165 197.623L102.165 215.123C102.165 215.444 102.254 215.759 102.421 216.033C102.588 216.308 102.828 216.531 103.114 216.678C103.399 216.825 103.72 216.89 104.04 216.867C104.36 216.845 104.668 216.734 104.93 216.548L117.18 207.798C117.407 207.636 117.592 207.422 117.719 207.174C117.847 206.926 117.914 206.652 117.914 206.373C117.914 206.094 117.847 205.82 117.719 205.572C117.592 205.324 117.407 205.11 117.18 204.949L104.93 196.199Z" fill="white"/>
<path d="M235.242 248.009L235.242 220.009C235.242 218.152 235.979 216.372 237.292 215.059C238.605 213.746 240.385 213.009 242.242 213.009L284.242 213.009C286.098 213.009 287.879 213.746 289.191 215.059C290.504 216.372 291.242 218.152 291.242 220.009L291.242 248.009C291.242 249.865 290.504 251.646 289.191 252.959C287.879 254.271 286.098 255.009 284.242 255.009L242.242 255.009C240.385 255.009 238.605 254.271 237.292 252.959C235.979 251.646 235.242 249.865 235.242 248.009ZM259.007 223.834C258.745 223.648 258.437 223.537 258.117 223.514C257.796 223.491 257.476 223.557 257.19 223.704C256.905 223.851 256.665 224.074 256.498 224.348C256.331 224.623 256.242 224.938 256.242 225.259L256.242 242.759C256.242 243.08 256.331 243.395 256.498 243.669C256.665 243.943 256.905 244.166 257.19 244.313C257.476 244.461 257.796 244.526 258.117 244.503C258.437 244.48 258.745 244.37 259.007 244.183L271.257 235.433C271.484 235.271 271.668 235.058 271.796 234.81C271.924 234.562 271.99 234.287 271.99 234.009C271.99 233.73 271.924 233.455 271.796 233.208C271.668 232.96 271.484 232.746 271.257 232.584L259.007 223.834Z" fill="white"/>
<path d="M389.318 275.645L389.318 247.645C389.318 245.788 390.055 244.008 391.368 242.695C392.681 241.382 394.461 240.645 396.318 240.645L438.318 240.645C440.174 240.645 441.955 241.382 443.268 242.695C444.58 244.008 445.318 245.788 445.318 247.645L445.318 275.645C445.318 277.501 444.58 279.282 443.268 280.594C441.955 281.907 440.174 282.645 438.318 282.645L396.318 282.645C394.461 282.645 392.681 281.907 391.368 280.594C390.055 279.282 389.318 277.501 389.318 275.645ZM413.083 251.47C412.821 251.284 412.513 251.173 412.193 251.15C411.872 251.127 411.552 251.193 411.266 251.34C410.981 251.487 410.741 251.71 410.574 251.984C410.407 252.258 410.318 252.573 410.318 252.895L410.318 270.395C410.318 270.716 410.407 271.031 410.574 271.305C410.741 271.579 410.981 271.802 411.266 271.949C411.552 272.096 411.872 272.162 412.193 272.139C412.513 272.116 412.821 272.005 413.083 271.819L425.333 263.069C425.56 262.907 425.745 262.693 425.872 262.446C426 262.198 426.066 261.923 426.066 261.645C426.066 261.366 426 261.091 425.872 260.843C425.745 260.596 425.56 260.382 425.333 260.22L413.083 251.47Z" fill="white"/>
<path d="M39.4741 -2.97363L39.4741 -30.9736C39.4741 -32.8301 40.2116 -34.6106 41.5244 -35.9234C42.8371 -37.2361 44.6176 -37.9736 46.4741 -37.9736L88.4741 -37.9736C90.3306 -37.9736 92.1111 -37.2361 93.4239 -35.9234C94.7366 -34.6106 95.4741 -32.8301 95.4741 -30.9736L95.4741 -2.97363C95.4741 -1.11712 94.7366 0.663359 93.4239 1.97611C92.1111 3.28887 90.3306 4.02637 88.4741 4.02637L46.4741 4.02637C44.6176 4.02637 42.8371 3.28887 41.5244 1.97611C40.2116 0.663359 39.4741 -1.11712 39.4741 -2.97363ZM63.2391 -27.1481C62.9774 -27.3344 62.6695 -27.4451 62.3491 -27.4681C62.0287 -27.491 61.7082 -27.4254 61.4226 -27.2782C61.1371 -27.1311 60.8975 -26.9082 60.7302 -26.634C60.5629 -26.3598 60.4743 -26.0449 60.4741 -25.7236L60.4741 -8.22363C60.4743 -7.90241 60.5629 -7.58744 60.7302 -7.31323C60.8975 -7.03902 61.1371 -6.81615 61.4226 -6.66903C61.7082 -6.52192 62.0287 -6.45624 62.3491 -6.47918C62.6695 -6.50213 62.9774 -6.61283 63.2391 -6.79913L75.4891 -15.5491C75.716 -15.711 75.9009 -15.9247 76.0285 -16.1725C76.156 -16.4203 76.2226 -16.6949 76.2226 -16.9736C76.2226 -17.2523 76.156 -17.527 76.0285 -17.7748C75.9009 -18.0225 75.716 -18.2363 75.4891 -18.3981L63.2391 -27.1481Z" fill="white"/>
<path d="M194.535 24.8384L194.535 -3.16162C194.535 -5.01814 195.273 -6.79861 196.585 -8.11137C197.898 -9.42412 199.679 -10.1616 201.535 -10.1616L243.535 -10.1616C245.392 -10.1616 247.172 -9.42412 248.485 -8.11137C249.798 -6.79861 250.535 -5.01814 250.535 -3.16162L250.535 24.8384C250.535 26.6949 249.798 28.4754 248.485 29.7881C247.172 31.1009 245.392 31.8384 243.535 31.8384L201.535 31.8384C199.679 31.8384 197.898 31.1009 196.585 29.7881C195.273 28.4754 194.535 26.6949 194.535 24.8384ZM218.3 0.663879C218.038 0.47757 217.731 0.366878 217.41 0.34393C217.09 0.320981 216.769 0.386661 216.484 0.533776C216.198 0.68089 215.959 0.903763 215.791 1.17797C215.624 1.45219 215.535 1.76716 215.535 2.08838L215.535 19.5884C215.535 19.9096 215.624 20.2246 215.791 20.4988C215.959 20.773 216.198 20.9959 216.484 21.143C216.769 21.2901 217.09 21.3558 217.41 21.3328C217.731 21.3099 218.038 21.1992 218.3 21.0129L230.55 12.2629C230.777 12.101 230.962 11.8873 231.09 11.6395C231.217 11.3917 231.284 11.1171 231.284 10.8384C231.284 10.5597 231.217 10.285 231.09 10.0373C230.962 9.78948 230.777 9.57576 230.55 9.41388L218.3 0.663879Z" fill="white"/>
<path d="M349.596 52.6509L349.596 24.6509C349.596 22.7944 350.333 21.0139 351.646 19.7011C352.959 18.3884 354.739 17.6509 356.596 17.6509L398.596 17.6509C400.452 17.6509 402.233 18.3884 403.545 19.7011C404.858 21.0139 405.596 22.7944 405.596 24.6509L405.596 52.6509C405.596 54.5074 404.858 56.2879 403.545 57.6006C402.233 58.9134 400.452 59.6509 398.596 59.6509L356.596 59.6509C354.739 59.6509 352.959 58.9134 351.646 57.6006C350.333 56.2879 349.596 54.5074 349.596 52.6509ZM373.361 28.4764C373.099 28.2901 372.791 28.1794 372.471 28.1564C372.15 28.1335 371.83 28.1992 371.544 28.3463C371.259 28.4934 371.019 28.7163 370.852 28.9905C370.685 29.2647 370.596 29.5797 370.596 29.9009L370.596 47.4009C370.596 47.7221 370.685 48.0371 370.852 48.3113C371.019 48.5855 371.259 48.8084 371.544 48.9555C371.83 49.1026 372.15 49.1683 372.471 49.1453C372.791 49.1224 373.099 49.0117 373.361 48.8254L385.611 40.0754C385.838 39.9135 386.022 39.6998 386.15 39.452C386.278 39.2042 386.344 38.9296 386.344 38.6509C386.344 38.3722 386.278 38.0975 386.15 37.8498C386.022 37.602 385.838 37.3883 385.611 37.2264L373.361 28.4764Z" fill="white"/>
<path d="M504.657 80.4634L504.657 52.4634C504.657 50.6069 505.394 48.8264 506.707 47.5136C508.02 46.2009 509.8 45.4634 511.657 45.4634L553.657 45.4634C555.513 45.4634 557.294 46.2009 558.606 47.5136C559.919 48.8264 560.657 50.6069 560.657 52.4634L560.657 80.4634C560.657 82.3199 559.919 84.1004 558.606 85.4131C557.294 86.7259 555.513 87.4634 553.657 87.4634L511.657 87.4634C509.8 87.4634 508.02 86.7259 506.707 85.4131C505.394 84.1004 504.657 82.3199 504.657 80.4634ZM528.422 56.2889C528.16 56.1026 527.852 55.9919 527.532 55.9689C527.211 55.946 526.891 56.0117 526.605 56.1588C526.32 56.3059 526.08 56.5288 525.913 56.803C525.746 57.0772 525.657 57.3922 525.657 57.7134L525.657 75.2134C525.657 75.5346 525.746 75.8496 525.913 76.1238C526.08 76.398 526.32 76.6209 526.605 76.768C526.891 76.9151 527.211 76.9808 527.532 76.9578C527.852 76.9349 528.16 76.8242 528.422 76.6379L540.672 67.8879C540.899 67.726 541.084 67.5123 541.211 67.2645C541.339 67.0167 541.405 66.7421 541.405 66.4634C541.405 66.1847 541.339 65.91 541.211 65.6623C541.084 65.4145 540.899 65.2008 540.672 65.0389L528.422 56.2889Z" fill="white"/>
<path d="M659.717 108.275L659.717 80.2754C659.717 78.4189 660.455 76.6384 661.768 75.3256C663.08 74.0129 664.861 73.2754 666.717 73.2754L708.717 73.2754C710.574 73.2754 712.354 74.0129 713.667 75.3256C714.98 76.6384 715.717 78.4189 715.717 80.2754L715.717 108.275C715.717 110.132 714.98 111.912 713.667 113.225C712.354 114.538 710.574 115.275 708.717 115.275L666.717 115.275C664.861 115.275 663.08 114.538 661.768 113.225C660.455 111.912 659.717 110.132 659.717 108.275ZM683.482 84.1009C683.221 83.9146 682.913 83.8039 682.592 83.7809C682.272 83.758 681.951 83.8237 681.666 83.9708C681.38 84.1179 681.141 84.3408 680.973 84.615C680.806 84.8892 680.717 85.2042 680.717 85.5254L680.717 103.025C680.717 103.347 680.806 103.662 680.973 103.936C681.141 104.21 681.38 104.433 681.666 104.58C681.951 104.727 682.272 104.793 682.592 104.77C682.913 104.747 683.221 104.636 683.482 104.45L695.732 95.6999C695.959 95.538 696.144 95.3243 696.272 95.0765C696.399 94.8287 696.466 94.5541 696.466 94.2754C696.466 93.9967 696.399 93.722 696.272 93.4743C696.144 93.2265 695.959 93.0128 695.732 92.8509L683.482 84.1009Z" fill="white"/>
<path d="M814.778 136.088L814.778 108.088C814.778 106.231 815.516 104.451 816.829 103.138C818.141 101.825 819.922 101.088 821.778 101.088L863.778 101.088C865.635 101.088 867.415 101.825 868.728 103.138C870.041 104.451 870.778 106.231 870.778 108.088L870.778 136.088C870.778 137.944 870.041 139.725 868.728 141.038C867.415 142.35 865.635 143.088 863.778 143.088L821.778 143.088C819.922 143.088 818.141 142.35 816.829 141.038C815.516 139.725 814.778 137.944 814.778 136.088ZM838.543 111.913C838.282 111.727 837.974 111.616 837.653 111.593C837.333 111.57 837.012 111.636 836.727 111.783C836.441 111.93 836.202 112.153 836.034 112.427C835.867 112.702 835.779 113.017 835.778 113.338L835.778 130.838C835.779 131.159 835.867 131.474 836.034 131.748C836.202 132.023 836.441 132.245 836.727 132.392C837.012 132.54 837.333 132.605 837.653 132.582C837.974 132.559 838.282 132.449 838.543 132.262L850.793 123.512C851.02 123.351 851.205 123.137 851.333 122.889C851.46 122.641 851.527 122.367 851.527 122.088C851.527 121.809 851.46 121.535 851.333 121.287C851.205 121.039 851.02 120.825 850.793 120.663L838.543 111.913Z" fill="white"/>
<path d="M12.5986 146.862L12.5986 118.862C12.5986 117.006 13.3361 115.225 14.6489 113.913C15.9616 112.6 17.7421 111.862 19.5986 111.862L61.5986 111.862C63.4551 111.862 65.2356 112.6 66.5484 113.913C67.8611 115.225 68.5986 117.006 68.5986 118.862L68.5986 146.862C68.5986 148.719 67.8611 150.499 66.5484 151.812C65.2356 153.125 63.4551 153.862 61.5986 153.862L19.5986 153.862C17.7421 153.862 15.9616 153.125 14.6489 151.812C13.3361 150.499 12.5986 148.719 12.5986 146.862ZM36.3636 122.688C36.102 122.501 35.7941 122.391 35.4737 122.368C35.1533 122.345 34.8327 122.411 34.5472 122.558C34.2616 122.705 34.0221 122.928 33.8547 123.202C33.6874 123.476 33.5988 123.791 33.5986 124.112L33.5986 141.612C33.5988 141.934 33.6874 142.248 33.8547 142.523C34.0221 142.797 34.2616 143.02 34.5472 143.167C34.8327 143.314 35.1533 143.38 35.4737 143.357C35.7941 143.334 36.102 143.223 36.3636 143.037L48.6136 134.287C48.8405 134.125 49.0254 133.911 49.153 133.663C49.2806 133.416 49.3471 133.141 49.3471 132.862C49.3471 132.584 49.2806 132.309 49.153 132.061C49.0254 131.813 48.8405 131.6 48.6136 131.438L36.3636 122.688Z" fill="white"/>
<path d="M167.66 174.674L167.66 146.674C167.66 144.818 168.397 143.037 169.71 141.725C171.023 140.412 172.803 139.674 174.66 139.674L216.66 139.674C218.516 139.674 220.297 140.412 221.609 141.725C222.922 143.037 223.66 144.818 223.66 146.674L223.66 174.674C223.66 176.531 222.922 178.311 221.609 179.624C220.297 180.937 218.516 181.674 216.66 181.674L174.66 181.674C172.803 181.674 171.023 180.937 169.71 179.624C168.397 178.311 167.66 176.531 167.66 174.674ZM191.425 150.5C191.163 150.314 190.855 150.203 190.535 150.18C190.214 150.157 189.894 150.223 189.608 150.37C189.323 150.517 189.083 150.74 188.916 151.014C188.748 151.288 188.66 151.603 188.66 151.924L188.66 169.424C188.66 169.746 188.748 170.061 188.916 170.335C189.083 170.609 189.323 170.832 189.608 170.979C189.894 171.126 190.214 171.192 190.535 171.169C190.855 171.146 191.163 171.035 191.425 170.849L203.675 162.099C203.902 161.937 204.086 161.723 204.214 161.475C204.342 161.228 204.408 160.953 204.408 160.674C204.408 160.396 204.342 160.121 204.214 159.873C204.086 159.625 203.902 159.412 203.675 159.25L191.425 150.5Z" fill="white"/>
<path d="M322.72 202.487L322.72 174.487C322.72 172.63 323.458 170.85 324.77 169.537C326.083 168.224 327.864 167.487 329.72 167.487L371.72 167.487C373.577 167.487 375.357 168.224 376.67 169.537C377.983 170.85 378.72 172.63 378.72 174.487L378.72 202.487C378.72 204.343 377.983 206.124 376.67 207.437C375.357 208.749 373.577 209.487 371.72 209.487L329.72 209.487C327.864 209.487 326.083 208.749 324.77 207.437C323.458 206.124 322.72 204.343 322.72 202.487ZM346.485 178.312C346.224 178.126 345.916 178.015 345.595 177.992C345.275 177.969 344.954 178.035 344.669 178.182C344.383 178.329 344.144 178.552 343.976 178.826C343.809 179.101 343.72 179.416 343.72 179.737L343.72 197.237C343.72 197.558 343.809 197.873 343.976 198.147C344.144 198.421 344.383 198.644 344.669 198.791C344.954 198.939 345.275 199.004 345.595 198.981C345.916 198.958 346.224 198.848 346.485 198.661L358.735 189.911C358.962 189.749 359.147 189.536 359.275 189.288C359.402 189.04 359.469 188.766 359.469 188.487C359.469 188.208 359.402 187.933 359.275 187.686C359.147 187.438 358.962 187.224 358.735 187.062L346.485 178.312Z" fill="white"/>
<path d="M477.781 230.299L477.781 202.299C477.781 200.443 478.519 198.662 479.832 197.35C481.144 196.037 482.925 195.299 484.781 195.299L526.781 195.299C528.638 195.299 530.418 196.037 531.731 197.35C533.044 198.662 533.781 200.443 533.781 202.299L533.781 230.299C533.781 232.156 533.044 233.936 531.731 235.249C530.418 236.562 528.638 237.299 526.781 237.299L484.781 237.299C482.925 237.299 481.144 236.562 479.832 235.249C478.519 233.936 477.781 232.156 477.781 230.299ZM501.546 206.125C501.285 205.939 500.977 205.828 500.656 205.805C500.336 205.782 500.015 205.848 499.73 205.995C499.444 206.142 499.205 206.365 499.037 206.639C498.87 206.913 498.781 207.228 498.781 207.549L498.781 225.049C498.781 225.371 498.87 225.686 499.037 225.96C499.205 226.234 499.444 226.457 499.73 226.604C500.015 226.751 500.336 226.817 500.656 226.794C500.977 226.771 501.285 226.66 501.546 226.474L513.796 217.724C514.023 217.562 514.208 217.348 514.336 217.1C514.463 216.853 514.53 216.578 514.53 216.299C514.53 216.021 514.463 215.746 514.336 215.498C514.208 215.25 514.023 215.037 513.796 214.875L501.546 206.125Z" fill="white"/>
<path d="M632.842 258.111L632.842 230.111C632.842 228.255 633.579 226.474 634.892 225.162C636.205 223.849 637.985 223.111 639.842 223.111L681.842 223.111C683.698 223.111 685.479 223.849 686.792 225.162C688.104 226.474 688.842 228.255 688.842 230.111L688.842 258.111C688.842 259.968 688.104 261.748 686.792 263.061C685.479 264.374 683.698 265.111 681.842 265.111L639.842 265.111C637.985 265.111 636.205 264.374 634.892 263.061C633.579 261.748 632.842 259.968 632.842 258.111ZM656.607 233.937C656.345 233.751 656.037 233.64 655.717 233.617C655.396 233.594 655.076 233.66 654.79 233.807C654.505 233.954 654.265 234.177 654.098 234.451C653.931 234.725 653.842 235.04 653.842 235.361L653.842 252.861C653.842 253.183 653.931 253.498 654.098 253.772C654.265 254.046 654.505 254.269 654.79 254.416C655.076 254.563 655.396 254.629 655.717 254.606C656.037 254.583 656.345 254.472 656.607 254.286L668.857 245.536C669.084 245.374 669.269 245.16 669.396 244.912C669.524 244.665 669.59 244.39 669.59 244.111C669.59 243.833 669.524 243.558 669.396 243.31C669.269 243.062 669.084 242.849 668.857 242.687L656.607 233.937Z" fill="white"/>
<path d="M787.903 285.924L787.903 257.924C787.903 256.067 788.64 254.287 789.953 252.974C791.266 251.661 793.046 250.924 794.903 250.924L836.903 250.924C838.759 250.924 840.54 251.661 841.853 252.974C843.165 254.287 843.903 256.067 843.903 257.924L843.903 285.924C843.903 287.78 843.165 289.561 841.853 290.874C840.54 292.186 838.759 292.924 836.903 292.924L794.903 292.924C793.046 292.924 791.266 292.186 789.953 290.874C788.64 289.561 787.903 287.78 787.903 285.924ZM811.668 261.749C811.406 261.563 811.098 261.452 810.778 261.429C810.457 261.406 810.137 261.472 809.851 261.619C809.566 261.766 809.326 261.989 809.159 262.263C808.992 262.538 808.903 262.853 808.903 263.174L808.903 280.674C808.903 280.995 808.992 281.31 809.159 281.584C809.326 281.858 809.566 282.081 809.851 282.228C810.137 282.376 810.457 282.441 810.778 282.418C811.098 282.395 811.406 282.285 811.668 282.098L823.918 273.348C824.145 273.186 824.33 272.973 824.457 272.725C824.585 272.477 824.651 272.203 824.651 271.924C824.651 271.645 824.585 271.37 824.457 271.123C824.33 270.875 824.145 270.661 823.918 270.499L811.668 261.749Z" fill="white"/>
<path d="M-14.2764 296.698L-14.2764 268.698C-14.2764 266.842 -13.5389 265.061 -12.2261 263.748C-10.9134 262.436 -9.13288 261.698 -7.27637 261.698L34.7236 261.698C36.5801 261.698 38.3606 262.436 39.6734 263.748C40.9861 265.061 41.7236 266.842 41.7236 268.698L41.7236 296.698C41.7236 298.555 40.9861 300.335 39.6734 301.648C38.3606 302.961 36.5801 303.698 34.7236 303.698L-7.27637 303.698C-9.13288 303.698 -10.9134 302.961 -12.2261 301.648C-13.5389 300.335 -14.2764 298.555 -14.2764 296.698ZM9.48863 272.524C9.22696 272.337 8.91906 272.227 8.59865 272.204C8.27825 272.181 7.95771 272.247 7.67216 272.394C7.38661 272.541 7.14705 272.764 6.97975 273.038C6.81244 273.312 6.72383 273.627 6.72363 273.948L6.72363 291.448C6.72383 291.769 6.81244 292.084 6.97975 292.359C7.14705 292.633 7.38661 292.856 7.67216 293.003C7.95771 293.15 8.27825 293.216 8.59865 293.193C8.91906 293.17 9.22696 293.059 9.48863 292.873L21.7386 284.123C21.9655 283.961 22.1504 283.747 22.278 283.499C22.4056 283.252 22.4721 282.977 22.4721 282.698C22.4721 282.42 22.4056 282.145 22.278 281.897C22.1504 281.649 21.9655 281.436 21.7386 281.274L9.48863 272.524Z" fill="white"/>
</g>
</g>
<defs>
<radialGradient id="paint0_radial_2009_17195" cx="0" cy="0" r="1" gradientUnits="userSpaceOnUse" gradientTransform="translate(133 426) rotate(-180) scale(168.339 382.446)">
<stop offset="0.085" stop-opacity="0.25"/>
<stop offset="1" stop-color="#25FF2C" stop-opacity="0.62"/>
</radialGradient>
<clipPath id="clip0_2009_17195">
<rect width="266" height="852" fill="white" transform="matrix(0 -1 1 0 0 266)"/>
</clipPath>
</defs>
</svg>
