<svg width="852" height="266" viewBox="0 0 852 266" fill="none" xmlns="http://www.w3.org/2000/svg">
<g clip-path="url(#clip0_2008_23953)">
<rect width="266" height="852" transform="matrix(0 -1 1 0 0 266)" fill="url(#paint0_radial_2008_23953)"/>
<g opacity="0.05">
<path d="M523.572 -50.5679C513.162 -50.6001 502.504 -48.9951 493.021 -44.8943C493.676 -43.2378 494.226 -41.311 494.68 -39.1655C492.127 -41.0897 488.933 -41.7043 486.109 -41.3124C480.294 -37.7351 475.147 -32.97 471.081 -26.7685C474.251 -25.7926 477.57 -23.8986 480.247 -21.2521C476.237 -22.1385 471.577 -21.9938 467.767 -20.8746C466.038 -17.2651 464.62 -13.2651 463.572 -8.83539C479.766 -12.694 479.994 -8.39326 469.957 8.83437C472.081 10.4214 475.264 10.5669 477.746 8.63771C478.469 -19.6167 490.728 -12.2802 493.591 -8.71749C495.389 -13.8245 497.966 -19.1026 501.506 -24.6296C499.331 -26.4749 496.573 -27.7547 493.477 -28.703C496.669 -29.3643 499.883 -30.0779 502.804 -30.1146C503.619 -30.125 504.412 -30.0804 505.175 -29.9692C507.385 -32.9897 509.881 -36.0855 512.692 -39.276C511.115 -40.0699 509.487 -40.7171 507.896 -41.1591C510.051 -41.8839 512.334 -42.2085 514.544 -42.1855C514.797 -42.1829 515.048 -42.1735 515.299 -42.1619C517.824 -44.8932 520.574 -47.6949 523.572 -50.5683L523.572 -50.5679ZM515.299 -47.3794C498.826 -39.1516 486.785 -26.8802 479.845 -11.3637C483.293 -30.1258 497.726 -42.6876 515.299 -47.3794Z" fill="white"/>
<path d="M684.76 -21.6563C674.35 -21.6885 663.692 -20.0835 654.209 -15.9827C654.864 -14.3262 655.414 -12.3994 655.868 -10.2539C653.315 -12.1781 650.121 -12.7927 647.297 -12.4008C641.482 -8.82349 636.335 -4.05835 632.269 2.14314C635.439 3.11899 638.758 5.01307 641.435 7.65954C637.425 6.77315 632.765 6.91784 628.955 8.037C627.226 11.6465 625.808 15.6465 624.76 20.0762C640.954 16.2176 641.182 20.5184 631.145 37.746C633.269 39.3331 636.452 39.4785 638.934 37.5493C639.657 9.29494 651.916 16.6314 654.779 20.1941C656.577 15.0871 659.154 9.80903 662.694 4.28206C660.519 2.43667 657.761 1.15697 654.665 0.20867C657.857 -0.452633 661.071 -1.16628 663.992 -1.20302C664.807 -1.21333 665.6 -1.16879 666.363 -1.05757C668.573 -4.07811 671.069 -7.17388 673.88 -10.3644C672.303 -11.1583 670.675 -11.8055 669.083 -12.2475C671.239 -12.9722 673.522 -13.2969 675.732 -13.2738C675.985 -13.2713 676.236 -13.2619 676.487 -13.2503C679.012 -15.9816 681.762 -18.7833 684.76 -21.6566L684.76 -21.6563ZM676.487 -18.4678C660.014 -10.24 647.973 2.03141 641.033 17.5479C644.481 -1.21421 658.914 -13.776 676.487 -18.4678Z" fill="white"/>
<path d="M845.948 7.25487C835.537 7.22266 824.88 8.82761 815.397 12.9284C816.052 14.585 816.602 16.5117 817.056 18.6572C814.503 16.7331 811.309 16.1184 808.485 16.5104C802.67 20.0876 797.523 24.8528 793.457 31.0543C796.627 32.0301 799.946 33.9242 802.623 36.5707C798.613 35.6843 793.953 35.829 790.143 36.9481C788.414 40.5576 786.996 44.5577 785.948 48.9874C802.142 45.1287 802.37 49.4295 792.333 66.6571C794.457 68.2442 797.64 68.3896 800.122 66.4605C800.845 38.2061 813.104 45.5426 815.967 49.1053C817.765 43.9983 820.342 38.7202 823.882 33.1932C821.707 31.3478 818.949 30.0681 815.853 29.1198C819.045 28.4585 822.259 27.7449 825.18 27.7081C825.995 27.6978 826.788 27.7423 827.551 27.8536C829.761 24.833 832.257 21.7373 835.068 18.5467C833.491 17.7528 831.863 17.1056 830.271 16.6636C832.427 15.9389 834.71 15.6143 836.92 15.6373C837.173 15.6398 837.424 15.6493 837.675 15.6608C840.2 12.9296 842.95 10.1278 845.948 7.25449L845.948 7.25487ZM837.675 10.4434C821.202 18.6712 809.161 30.9425 802.221 46.459C805.669 27.6969 820.102 15.1352 837.675 10.4434Z" fill="white"/>
<path d="M10.125 29.3032C-0.285255 29.271 -10.9424 30.8759 -20.4256 34.9768C-19.7707 36.6333 -19.2205 38.5601 -18.7663 40.7055C-21.3197 38.7814 -24.5133 38.1668 -27.3376 38.5587C-33.1529 42.136 -38.3002 46.9011 -42.3654 53.1026C-39.1956 54.0785 -35.8769 55.9725 -33.2001 58.619C-37.2099 57.7326 -41.8699 57.8773 -45.6798 58.9965C-47.409 62.606 -48.8263 66.606 -49.875 71.0357C-33.6809 67.1771 -33.4529 71.4778 -43.4897 88.7055C-41.3662 90.2925 -38.1824 90.438 -35.7008 88.5088C-34.9773 60.2544 -22.7188 67.5909 -19.8554 71.1536C-18.0577 66.0466 -15.4807 60.7685 -11.9406 55.2415C-14.116 53.3961 -16.874 52.1164 -19.9695 51.1681C-16.7782 50.5068 -13.5641 49.7932 -10.643 49.7565C-9.82748 49.7461 -9.03508 49.7907 -8.27211 49.9019C-6.06147 46.8814 -3.56548 43.7856 -0.754433 40.5951C-2.33195 39.8012 -3.95979 39.1539 -5.55128 38.7119C-3.39575 37.9872 -1.11314 37.6626 1.09749 37.6856C1.35039 37.6882 1.60127 37.6976 1.85241 37.7092C4.37759 34.9779 7.12761 32.1762 10.125 29.3028L10.125 29.3032ZM1.85241 32.4917C-14.6211 40.7195 -26.6614 52.9909 -33.6013 68.5074C-30.1534 49.7453 -15.721 37.1835 1.85241 32.4917Z" fill="white"/>
<path d="M171.313 58.2148C160.903 58.1826 150.246 59.7876 140.762 63.8884C141.417 65.5449 141.967 67.4717 142.422 69.6172C139.868 67.693 136.675 67.0784 133.85 67.4703C128.035 71.0476 122.888 75.8127 118.823 82.0142C121.992 82.9901 125.311 84.8842 127.988 87.5306C123.978 86.6442 119.318 86.7889 115.508 87.9081C113.779 91.5176 112.362 95.5176 111.313 99.9473C127.507 96.0887 127.735 100.389 117.698 117.617C119.822 119.204 123.006 119.35 125.487 117.42C126.211 89.166 138.469 96.5025 141.333 100.065C143.13 94.9582 145.707 89.6801 149.247 84.1532C147.072 82.3078 144.314 81.0281 141.218 80.0798C144.41 79.4185 147.624 78.7048 150.545 78.6681C151.361 78.6578 152.153 78.7023 152.916 78.8135C155.127 75.793 157.623 72.6972 160.434 69.5067C158.856 68.7128 157.228 68.0656 155.637 67.6236C157.792 66.8989 160.075 66.5742 162.285 66.5973C162.538 66.5998 162.789 66.6092 163.04 66.6208C165.566 63.8895 168.316 61.0878 171.313 58.2145L171.313 58.2148ZM163.04 61.4033C146.567 69.6311 134.527 81.9025 127.587 97.419C131.035 78.6569 145.467 66.0951 163.04 61.4033Z" fill="white"/>
<path d="M332.501 87.126C322.091 87.0938 311.434 88.6987 301.95 92.7995C302.605 94.456 303.155 96.3828 303.61 98.5283C301.056 96.6042 297.863 95.9895 295.038 96.3815C289.223 99.9587 284.076 104.724 280.011 110.925C283.18 111.901 286.499 113.795 289.176 116.442C285.166 115.555 280.506 115.7 276.696 116.819C274.967 120.429 273.55 124.429 272.501 128.858C288.695 125 288.923 129.301 278.886 146.528C281.01 148.115 284.194 148.261 286.675 146.332C287.399 118.077 299.657 125.414 302.521 128.976C304.318 123.869 306.895 118.591 310.435 113.064C308.26 111.219 305.502 109.939 302.406 108.991C305.598 108.33 308.812 107.616 311.733 107.579C312.548 107.569 313.341 107.613 314.104 107.725C316.315 104.704 318.81 101.608 321.622 98.4178C320.044 97.6239 318.416 96.9767 316.825 96.5347C318.98 95.81 321.263 95.4854 323.473 95.5084C323.726 95.5109 323.977 95.5203 324.228 95.5319C326.754 92.8006 329.504 89.9989 332.501 87.1256L332.501 87.126ZM324.228 90.3145C307.755 98.5423 295.715 110.814 288.775 126.33C292.223 107.568 306.655 95.0063 324.228 90.3145Z" fill="white"/>
<path d="M493.689 116.037C483.279 116.005 472.622 117.61 463.138 121.711C463.793 123.367 464.343 125.294 464.798 127.439C462.244 125.515 459.051 124.901 456.226 125.293C450.411 128.87 445.264 133.635 441.199 139.836C444.368 140.812 447.687 142.706 450.364 145.353C446.354 144.467 441.694 144.611 437.884 145.73C436.155 149.34 434.738 153.34 433.689 157.77C449.883 153.911 450.111 158.212 440.074 175.439C442.198 177.026 445.382 177.172 447.863 175.243C448.587 146.988 460.845 154.325 463.709 157.887C465.506 152.78 468.083 147.502 471.623 141.975C469.448 140.13 466.69 138.85 463.594 137.902C466.786 137.241 470 136.527 472.921 136.49C473.736 136.48 474.529 136.525 475.292 136.636C477.502 133.615 479.998 130.519 482.81 127.329C481.232 126.535 479.604 125.888 478.013 125.446C480.168 124.721 482.451 124.397 484.661 124.42C484.914 124.422 485.165 124.431 485.416 124.443C487.942 121.712 490.692 118.91 493.689 116.037L493.689 116.037ZM485.416 119.226C468.943 127.453 456.903 139.725 449.963 155.241C453.411 136.479 467.843 123.917 485.416 119.226Z" fill="white"/>
<path d="M654.877 144.949C644.467 144.917 633.81 146.521 624.326 150.622C624.981 152.279 625.531 154.206 625.986 156.351C623.432 154.427 620.239 153.812 617.414 154.204C611.599 157.781 606.452 162.547 602.387 168.748C605.556 169.724 608.875 171.618 611.552 174.265C607.542 173.378 602.882 173.523 599.072 174.642C597.343 178.251 595.926 182.252 594.877 186.681C611.071 182.823 611.299 187.123 601.262 204.351C603.386 205.938 606.57 206.083 609.051 204.154C609.775 175.9 622.033 183.236 624.897 186.799C626.694 181.692 629.271 176.414 632.811 170.887C630.636 169.042 627.878 167.762 624.782 166.814C627.974 166.152 631.188 165.439 634.109 165.402C634.924 165.392 635.717 165.436 636.48 165.547C638.69 162.527 641.186 159.431 643.998 156.241C642.42 155.447 640.792 154.799 639.201 154.357C641.356 153.633 643.639 153.308 645.849 153.331C646.102 153.334 646.353 153.343 646.604 153.355C649.13 150.623 651.88 147.822 654.877 144.948L654.877 144.949ZM646.604 148.137C630.131 156.365 618.091 168.636 611.151 184.153C614.599 165.391 629.031 152.829 646.604 148.137Z" fill="white"/>
<path d="M816.065 173.86C805.655 173.828 794.998 175.433 785.514 179.533C786.169 181.19 786.719 183.117 787.174 185.262C784.62 183.338 781.427 182.723 778.602 183.115C772.787 186.693 767.64 191.458 763.575 197.659C766.744 198.635 770.063 200.529 772.74 203.176C768.73 202.289 764.07 202.434 760.26 203.553C758.531 207.163 757.114 211.163 756.065 215.592C772.259 211.734 772.487 216.034 762.45 233.262C764.574 234.849 767.758 234.995 770.239 233.065C770.963 204.811 783.221 212.148 786.085 215.71C787.882 210.603 790.459 205.325 793.999 199.798C791.824 197.953 789.066 196.673 785.97 195.725C789.162 195.063 792.376 194.35 795.297 194.313C796.112 194.303 796.905 194.347 797.668 194.459C799.878 191.438 802.374 188.342 805.186 185.152C803.608 184.358 801.98 183.711 800.389 183.269C802.544 182.544 804.827 182.219 807.037 182.242C807.29 182.245 807.541 182.254 807.792 182.266C810.318 179.535 813.068 176.733 816.065 173.859L816.065 173.86ZM807.792 177.048C791.319 185.276 779.279 197.548 772.339 213.064C775.787 194.302 790.219 181.74 807.792 177.048Z" fill="white"/>
<path d="M141.43 224.82C131.02 224.788 120.363 226.393 110.88 230.493C111.534 232.15 112.085 234.077 112.539 236.222C109.986 234.298 106.792 233.683 103.968 234.075C98.1523 237.653 93.005 242.418 88.9398 248.619C92.1096 249.595 95.4283 251.489 98.1051 254.136C94.0952 253.249 89.4353 253.394 85.6254 254.513C83.8962 258.123 82.4789 262.123 81.4302 266.552C97.6243 262.694 97.8523 266.994 87.8155 284.222C89.9389 285.809 93.1228 285.955 95.6044 284.025C96.3279 255.771 108.586 263.108 111.45 266.67C113.248 261.563 115.825 256.285 119.365 250.758C117.189 248.913 114.431 247.633 111.336 246.685C114.527 246.023 117.741 245.31 120.662 245.273C121.478 245.263 122.27 245.307 123.033 245.419C125.244 242.398 127.74 239.302 130.551 236.112C128.973 235.318 127.345 234.671 125.754 234.229C127.909 233.504 130.192 233.179 132.403 233.202C132.656 233.205 132.906 233.214 133.158 233.226C135.683 230.494 138.433 227.693 141.43 224.819L141.43 224.82ZM133.158 228.008C116.684 236.236 104.644 248.507 97.7038 264.024C101.152 245.262 115.584 232.7 133.158 228.008Z" fill="white"/>
<path d="M302.618 253.731C292.208 253.699 281.551 255.304 272.068 259.404C272.722 261.061 273.273 262.988 273.727 265.133C271.174 263.209 267.98 262.595 265.156 262.986C259.34 266.564 254.193 271.329 250.128 277.53C253.298 278.506 256.616 280.4 259.293 283.047C255.283 282.16 250.623 282.305 246.813 283.424C245.084 287.034 243.667 291.034 242.618 295.463C258.812 291.605 259.04 295.906 249.003 313.133C251.127 314.72 254.311 314.866 256.792 312.937C257.516 284.682 269.774 292.019 272.638 295.581C274.435 290.474 277.013 285.196 280.553 279.669C278.377 277.824 275.619 276.544 272.524 275.596C275.715 274.935 278.929 274.221 281.85 274.184C282.666 274.174 283.458 274.218 284.221 274.33C286.432 271.309 288.928 268.213 291.739 265.023C290.161 264.229 288.533 263.582 286.942 263.14C289.097 262.415 291.38 262.09 293.591 262.113C293.844 262.116 294.094 262.125 294.346 262.137C296.871 259.406 299.621 256.604 302.618 253.731L302.618 253.731ZM294.346 256.919C277.872 265.147 265.832 277.419 258.892 292.935C262.34 274.173 276.772 261.611 294.346 256.919Z" fill="white"/>
<path d="M99.3496 -37.2783C88.9394 -37.3105 78.2822 -35.7056 68.799 -31.6048C69.4539 -29.9483 70.0041 -28.0215 70.4583 -25.876C67.905 -27.8001 64.7113 -28.4148 61.887 -28.0228C56.0717 -24.4456 50.9244 -19.6804 46.8592 -13.4789C50.029 -12.5031 53.3477 -10.609 56.0245 -7.96253C52.0147 -8.84892 47.3547 -8.70423 43.5448 -7.58507C41.8157 -3.97558 40.3983 0.024456 39.3496 4.45416C55.5438 0.595547 55.7717 4.89629 45.7349 22.1239C47.8584 23.711 51.0422 23.8564 53.5239 21.9273C54.2473 -6.32714 66.5059 1.00937 69.3692 4.57206C71.1669 -0.534935 73.744 -5.81304 77.284 -11.34C75.1086 -13.1854 72.3506 -14.4651 69.2551 -15.4134C72.4464 -16.0747 75.6606 -16.7883 78.5816 -16.8251C79.3971 -16.8354 80.1895 -16.7909 80.9525 -16.6796C83.1631 -19.7002 85.6591 -22.7959 88.4702 -25.9865C86.8927 -26.7804 85.2648 -27.4276 83.6733 -27.8696C85.8289 -28.5943 88.1115 -28.9189 90.3221 -28.8959C90.575 -28.8934 90.8259 -28.8839 91.077 -28.8724C93.6022 -31.6036 96.3522 -34.4054 99.3496 -37.2787L99.3496 -37.2783ZM91.077 -34.0898C74.6036 -25.862 62.5632 -13.5907 55.6233 1.92583C59.0712 -16.8363 73.5036 -29.398 91.077 -34.0898Z" fill="white"/>
<path d="M261.522 -8.19044C251.112 -8.22265 240.455 -6.61771 230.971 -2.51689C231.626 -0.86036 232.176 1.06643 232.631 3.2119C230.077 1.28775 226.884 0.673122 224.059 1.06505C218.244 4.64233 213.097 9.40747 209.032 15.609C212.201 16.5848 215.52 18.4789 218.197 21.1254C214.187 20.239 209.527 20.3837 205.717 21.5028C203.988 25.1123 202.571 29.1123 201.522 33.5421C217.716 29.6834 217.944 33.9842 207.907 51.2118C210.031 52.7989 213.215 52.9443 215.696 51.0152C216.42 22.7608 228.678 30.0973 231.542 33.6599C233.339 28.553 235.916 23.2749 239.456 17.7479C237.281 15.9025 234.523 14.6228 231.427 13.6745C234.619 13.0132 237.833 12.2995 240.754 12.2628C241.569 12.2525 242.362 12.297 243.125 12.4082C245.335 9.38771 247.831 6.29194 250.643 3.10143C249.065 2.30751 247.437 1.6603 245.846 1.2183C248.001 0.493578 250.284 0.168965 252.494 0.19199C252.747 0.194506 252.998 0.203943 253.249 0.215518C255.775 -2.51576 258.525 -5.31749 261.522 -8.19082L261.522 -8.19044ZM253.249 -5.00194C236.776 3.22586 224.736 15.4972 217.796 31.0137C221.244 12.2516 235.676 -0.310153 253.249 -5.00194Z" fill="white"/>
<path d="M423.694 20.8974C413.284 20.8652 402.627 22.4702 393.144 26.571C393.799 28.2275 394.349 30.1543 394.803 32.2998C392.25 30.3756 389.056 29.761 386.232 30.1529C380.416 33.7302 375.269 38.4954 371.204 44.6968C374.374 45.6727 377.692 47.5668 380.369 50.2133C376.359 49.3269 371.699 49.4715 367.89 50.5907C366.16 54.2002 364.743 58.2002 363.694 62.6299C379.888 58.7713 380.116 63.0721 370.08 80.2997C372.203 81.8868 375.387 82.0322 377.869 80.103C378.592 51.8486 390.851 59.1851 393.714 62.7478C395.512 57.6408 398.089 52.3627 401.629 46.8358C399.453 44.9904 396.695 43.7107 393.6 42.7624C396.791 42.1011 400.005 41.3874 402.926 41.3507C403.742 41.3404 404.534 41.3849 405.297 41.4961C407.508 38.4756 410.004 35.3798 412.815 32.1893C411.237 31.3954 409.61 30.7482 408.018 30.3062C410.174 29.5815 412.456 29.2569 414.667 29.2799C414.92 29.2824 415.171 29.2918 415.422 29.3034C417.947 26.5721 420.697 23.7704 423.694 20.8971L423.694 20.8974ZM415.422 24.0859C398.948 32.3138 386.908 44.5851 379.968 60.1016C383.416 41.3395 397.848 28.7777 415.422 24.0859Z" fill="white"/>
<path d="M585.867 49.9853C575.456 49.9531 564.799 51.5581 555.316 55.6589C555.971 57.3154 556.521 59.2422 556.975 61.3877C554.422 59.4635 551.228 58.8489 548.404 59.2408C542.589 62.8181 537.442 67.5833 533.376 73.7847C536.546 74.7606 539.865 76.6547 542.542 79.3011C538.532 78.4147 533.872 78.5594 530.062 79.6786C528.333 83.2881 526.915 87.2881 525.867 91.7178C542.061 87.8592 542.289 92.16 532.252 109.388C534.375 110.975 537.559 111.12 540.041 109.191C540.764 80.9365 553.023 88.273 555.886 91.8357C557.684 86.7287 560.261 81.4506 563.801 75.9237C561.626 74.0783 558.868 72.7986 555.772 71.8503C558.963 71.189 562.178 70.4753 565.099 70.4386C565.914 70.4283 566.707 70.4728 567.47 70.584C569.68 67.5635 572.176 64.4677 574.987 61.2772C573.41 60.4833 571.782 59.8361 570.19 59.3941C572.346 58.6694 574.629 58.3447 576.839 58.3678C577.092 58.3703 577.343 58.3797 577.594 58.3913C580.119 55.66 582.869 52.8583 585.867 49.985L585.867 49.9853ZM577.594 53.1738C561.121 61.4016 549.08 73.673 542.14 89.1895C545.588 70.4274 560.021 57.8656 577.594 53.1738Z" fill="white"/>
<path d="M748.039 79.0732C737.629 79.041 726.972 80.646 717.488 84.7468C718.143 86.4033 718.694 88.3301 719.148 90.4756C716.594 88.5514 713.401 87.9368 710.576 88.3287C704.761 91.906 699.614 96.6711 695.549 102.873C698.718 103.848 702.037 105.743 704.714 108.389C700.704 107.503 696.044 107.647 692.234 108.766C690.505 112.376 689.088 116.376 688.039 120.806C704.233 116.947 704.461 121.248 694.424 138.475C696.548 140.063 699.732 140.208 702.213 138.279C702.937 110.024 715.195 117.361 718.059 120.924C719.856 115.817 722.433 110.539 725.973 105.012C723.798 103.166 721.04 101.886 717.945 100.938C721.136 100.277 724.35 99.5632 727.271 99.5265C728.087 99.5162 728.879 99.5607 729.642 99.6719C731.853 96.6514 734.349 93.5556 737.16 90.3651C735.582 89.5712 733.954 88.924 732.363 88.482C734.518 87.7573 736.801 87.4326 739.012 87.4557C739.264 87.4582 739.515 87.4676 739.766 87.4792C742.292 84.7479 745.042 81.9462 748.039 79.0729L748.039 79.0732ZM739.766 82.2617C723.293 90.4895 711.253 102.761 704.313 118.277C707.761 99.5153 722.193 86.9535 739.766 82.2617Z" fill="white"/>
<path d="M910.211 108.161C899.801 108.129 889.144 109.734 879.66 113.835C880.315 115.491 880.865 117.418 881.32 119.563C878.766 117.639 875.573 117.025 872.748 117.417C866.933 120.994 861.786 125.759 857.721 131.961C860.89 132.936 864.209 134.83 866.886 137.477C862.876 136.591 858.216 136.735 854.406 137.854C852.677 141.464 851.26 145.464 850.211 149.894C866.405 146.035 866.633 150.336 856.596 167.563C858.72 169.15 861.904 169.296 864.385 167.367C865.109 139.112 877.367 146.449 880.231 150.012C882.028 144.905 884.605 139.626 888.145 134.099C885.97 132.254 883.212 130.974 880.116 130.026C883.308 129.365 886.522 128.651 889.443 128.614C890.258 128.604 891.051 128.649 891.814 128.76C894.024 125.739 896.52 122.644 899.332 119.453C897.754 118.659 896.126 118.012 894.535 117.57C896.69 116.845 898.973 116.521 901.183 116.544C901.436 116.546 901.687 116.556 901.938 116.567C904.464 113.836 907.214 111.034 910.211 108.161L910.211 108.161ZM901.938 111.35C885.465 119.577 873.425 131.849 866.485 147.365C869.933 128.603 884.365 116.041 901.938 111.35Z" fill="white"/>
<path d="M69.1133 131.295C58.703 131.263 48.0459 132.868 38.5627 136.969C39.2176 138.625 39.7678 140.552 40.222 142.698C37.6686 140.774 34.475 140.159 31.6507 140.551C25.8354 144.128 20.6881 148.893 16.6229 155.095C19.7927 156.071 23.1114 157.965 25.7882 160.611C21.7783 159.725 17.1184 159.869 13.3085 160.989C11.5793 164.598 10.162 168.598 9.11328 173.028C25.3074 169.169 25.5354 173.47 15.4986 190.698C17.622 192.285 20.8059 192.43 23.2875 190.501C24.011 162.247 36.2695 169.583 39.1329 173.146C40.9306 168.039 43.5076 162.761 47.0477 157.234C44.8723 155.388 42.1143 154.109 39.0188 153.16C42.2101 152.499 45.4242 151.785 48.3452 151.749C49.1608 151.738 49.9532 151.783 50.7162 151.894C52.9268 148.874 55.4228 145.778 58.2338 142.587C56.6563 141.793 55.0285 141.146 53.437 140.704C55.5925 139.979 57.8751 139.655 60.0858 139.678C60.3387 139.68 60.5896 139.69 60.8407 139.701C63.3659 136.97 66.1159 134.168 69.1133 131.295L69.1133 131.295ZM60.8407 134.484C44.3672 142.712 32.3269 154.983 25.3869 170.5C28.8349 151.737 43.2673 139.176 60.8407 134.484Z" fill="white"/>
<path d="M231.286 160.383C220.875 160.351 210.218 161.956 200.735 166.057C201.39 167.713 201.94 169.64 202.394 171.786C199.841 169.861 196.647 169.247 193.823 169.639C188.008 173.216 182.86 177.981 178.795 184.183C181.965 185.159 185.284 187.053 187.961 189.699C183.951 188.813 179.291 188.957 175.481 190.077C173.752 193.686 172.334 197.686 171.286 202.116C187.48 198.257 187.708 202.558 177.671 219.786C179.794 221.373 182.978 221.518 185.46 219.589C186.183 191.334 198.442 198.671 201.305 202.234C203.103 197.127 205.68 191.849 209.22 186.322C207.045 184.476 204.287 183.197 201.191 182.248C204.382 181.587 207.597 180.873 210.518 180.837C211.333 180.826 212.126 180.871 212.889 180.982C215.099 177.961 217.595 174.866 220.406 171.675C218.829 170.881 217.201 170.234 215.609 169.792C217.765 169.067 220.048 168.743 222.258 168.766C222.511 168.768 222.762 168.778 223.013 168.789C225.538 166.058 228.288 163.256 231.286 160.383L231.286 160.383ZM223.013 163.572C206.54 171.8 194.499 184.071 187.559 199.587C191.007 180.825 205.44 168.264 223.013 163.572Z" fill="white"/>
<path d="M393.458 189.471C383.048 189.439 372.391 191.044 362.907 195.145C363.562 196.801 364.113 198.728 364.567 200.874C362.013 198.949 358.82 198.335 355.995 198.727C350.18 202.304 345.033 207.069 340.968 213.271C344.137 214.246 347.456 216.141 350.133 218.787C346.123 217.901 341.463 218.045 337.653 219.164C335.924 222.774 334.507 226.774 333.458 231.204C349.652 227.345 349.88 231.646 339.843 248.873C341.967 250.461 345.151 250.606 347.632 248.677C348.356 220.422 360.614 227.759 363.478 231.322C365.275 226.215 367.852 220.936 371.392 215.409C369.217 213.564 366.459 212.284 363.364 211.336C366.555 210.675 369.769 209.961 372.69 209.924C373.506 209.914 374.298 209.959 375.061 210.07C377.272 207.049 379.768 203.954 382.579 200.763C381.001 199.969 379.373 199.322 377.782 198.88C379.937 198.155 382.22 197.831 384.43 197.854C384.683 197.856 384.934 197.866 385.185 197.877C387.711 195.146 390.461 192.344 393.458 189.471L393.458 189.471ZM385.185 192.66C368.712 200.887 356.672 213.159 349.732 228.675C353.18 209.913 367.612 197.351 385.185 192.66Z" fill="white"/>
<path d="M555.63 218.559C545.22 218.527 534.563 220.132 525.08 224.233C525.735 225.889 526.285 227.816 526.739 229.961C524.186 228.037 520.992 227.423 518.168 227.815C512.352 231.392 507.205 236.157 503.14 242.358C506.31 243.334 509.628 245.228 512.305 247.875C508.295 246.988 503.635 247.133 499.826 248.252C498.096 251.862 496.679 255.862 495.63 260.292C511.825 256.433 512.053 260.734 502.016 277.961C504.139 279.548 507.323 279.694 509.805 277.765C510.528 249.51 522.787 256.847 525.65 260.409C527.448 255.302 530.025 250.024 533.565 244.497C531.389 242.652 528.631 241.372 525.536 240.424C528.727 239.763 531.941 239.049 534.862 239.012C535.678 239.002 536.47 239.047 537.233 239.158C539.444 236.137 541.94 233.041 544.751 229.851C543.173 229.057 541.546 228.41 539.954 227.968C542.11 227.243 544.392 226.918 546.603 226.942C546.856 226.944 547.107 226.953 547.358 226.965C549.883 224.234 552.633 221.432 555.63 218.559L555.63 218.559ZM547.358 221.748C530.884 229.975 518.844 242.247 511.904 257.763C515.352 239.001 529.784 226.439 547.358 221.748Z" fill="white"/>
<path d="M717.803 247.647C707.392 247.615 696.735 249.22 687.252 253.321C687.907 254.977 688.457 256.904 688.911 259.049C686.358 257.125 683.164 256.511 680.34 256.902C674.525 260.48 669.378 265.245 665.312 271.446C668.482 272.422 671.801 274.316 674.478 276.963C670.468 276.076 665.808 276.221 661.998 277.34C660.269 280.95 658.851 284.95 657.803 289.379C673.997 285.521 674.225 289.822 664.188 307.049C666.311 308.636 669.495 308.782 671.977 306.853C672.7 278.598 684.959 285.935 687.822 289.497C689.62 284.39 692.197 279.112 695.737 273.585C693.562 271.74 690.804 270.46 687.708 269.512C690.9 268.851 694.114 268.137 697.035 268.1C697.85 268.09 698.643 268.134 699.406 268.246C701.616 265.225 704.112 262.129 706.923 258.939C705.346 258.145 703.718 257.498 702.126 257.056C704.282 256.331 706.565 256.006 708.775 256.029C709.028 256.032 709.279 256.041 709.53 256.053C712.055 253.322 714.805 250.52 717.803 247.647L717.803 247.647ZM709.53 250.835C693.057 259.063 681.016 271.335 674.076 286.851C677.524 268.089 691.957 255.527 709.53 250.835Z" fill="white"/>
</g>
</g>
<defs>
<radialGradient id="paint0_radial_2008_23953" cx="0" cy="0" r="1" gradientUnits="userSpaceOnUse" gradientTransform="translate(133 426) rotate(-180) scale(168.339 382.446)">
<stop offset="0.085" stop-color="#02215C" stop-opacity="0.9"/>
<stop offset="1" stop-color="#2574FF" stop-opacity="0.62"/>
</radialGradient>
<clipPath id="clip0_2008_23953">
<rect width="266" height="852" fill="white" transform="matrix(0 -1 1 0 0 266)"/>
</clipPath>
</defs>
</svg>
